<?xml version="1.0" encoding="UTF-8" standalone="no"?>
<svg
   xmlns:dc="http://purl.org/dc/elements/1.1/"
   xmlns:cc="http://creativecommons.org/ns#"
   xmlns:rdf="http://www.w3.org/1999/02/22-rdf-syntax-ns#"
   xmlns:svg="http://www.w3.org/2000/svg"
   xmlns="http://www.w3.org/2000/svg"
   xmlns:sodipodi="http://sodipodi.sourceforge.net/DTD/sodipodi-0.dtd"
   xmlns:inkscape="http://www.inkscape.org/namespaces/inkscape"
   width="380"
   height="431"
   viewBox="491 31 210.91407 239.95817"
   id="svg2"
   version="1.1"
   inkscape:version="0.48.4 r9939"
   sodipodi:docname="microcircuit_model_pre0.svg">
  <metadata
     id="metadata428">
    <rdf:RDF>
      <cc:Work
         rdf:about="">
        <dc:format>image/svg+xml</dc:format>
        <dc:type
           rdf:resource="http://purl.org/dc/dcmitype/StillImage" />
        <dc:title></dc:title>
      </cc:Work>
    </rdf:RDF>
  </metadata>
  <defs
     id="defs426">
    <marker
       inkscape:stockid="Arrow2Mend"
       orient="auto"
       refY="0"
       refX="0"
       id="Arrow2Mend"
       style="overflow:visible">
      <path
         id="path5752"
         style="fill-rule:evenodd;stroke-width:0.625;stroke-linejoin:round"
         d="M 8.7185878,4.0337352 -2.2072895,0.01601326 8.7185884,-4.0017078 c -1.7454984,2.3720609 -1.7354408,5.6174519 -6e-7,8.035443 z"
         transform="scale(-0.6,-0.6)"
         inkscape:connector-curvature="0" />
    </marker>
    <marker
       inkscape:stockid="Arrow1Mend"
       orient="auto"
       refY="0"
       refX="0"
       id="Arrow1Mend"
       style="overflow:visible">
      <path
         id="path5734"
         d="M 0,0 5,-5 -12.5,0 5,5 0,0 z"
         style="fill-rule:evenodd;stroke:#000000;stroke-width:1pt"
         transform="matrix(-0.4,0,0,-0.4,-4,0)"
         inkscape:connector-curvature="0" />
    </marker>
    <inkscape:perspective
       sodipodi:type="inkscape:persp3d"
       inkscape:vp_x="0 : 247 : 1"
       inkscape:vp_y="0 : 1000 : 0"
       inkscape:vp_z="800 : 247 : 1"
       inkscape:persp3d-origin="400 : 164.66667 : 1"
       id="perspective8520" />
    <marker
       inkscape:stockid="DotM"
       orient="auto"
       refY="0"
       refX="0"
       id="DotM"
       style="overflow:visible">
      <path
         id="path5789"
         d="m -2.5,-1 c 0,2.76 -2.24,5 -5,5 -2.76,0 -5,-2.24 -5,-5 0,-2.76 2.24,-5 5,-5 2.76,0 5,2.24 5,5 z"
         style="fill-rule:evenodd;stroke:#000000;stroke-width:1pt"
         transform="matrix(0.4,0,0,0.4,2.96,0.4)"
         inkscape:connector-curvature="0" />
    </marker>
    <marker
       inkscape:stockid="DotL"
       orient="auto"
       refY="0"
       refX="0"
       id="DotL"
       style="overflow:visible">
      <path
         id="path5786"
         d="m -2.5,-1 c 0,2.76 -2.24,5 -5,5 -2.76,0 -5,-2.24 -5,-5 0,-2.76 2.24,-5 5,-5 2.76,0 5,2.24 5,5 z"
         style="fill-rule:evenodd;stroke:#000000;stroke-width:1pt"
         transform="matrix(0.8,0,0,0.8,5.92,0.8)"
         inkscape:connector-curvature="0" />
    </marker>
    <marker
       inkscape:stockid="DiamondLstart"
       orient="auto"
       refY="0"
       refX="0"
       id="DiamondLstart"
       style="overflow:visible">
      <path
         id="path5813"
         d="M 0,-7.0710768 -7.0710894,0 0,7.0710589 7.0710462,0 0,-7.0710768 z"
         style="fill-rule:evenodd;stroke:#000000;stroke-width:1pt"
         transform="matrix(0.8,0,0,0.8,5.6,0)"
         inkscape:connector-curvature="0" />
    </marker>
    <marker
       inkscape:stockid="Arrow2Lend"
       orient="auto"
       refY="0"
       refX="0"
       id="Arrow2Lend"
       style="overflow:visible">
      <path
         id="path5746"
         style="fill-rule:evenodd;stroke-width:0.625;stroke-linejoin:round"
         d="M 8.7185878,4.0337352 -2.2072895,0.01601326 8.7185884,-4.0017078 c -1.7454984,2.3720609 -1.7354408,5.6174519 -6e-7,8.035443 z"
         transform="matrix(-1.1,0,0,-1.1,-1.1,0)"
         inkscape:connector-curvature="0" />
    </marker>
    <marker
       inkscape:stockid="Arrow2Lend"
       orient="auto"
       refY="0"
       refX="0"
       id="Arrow2Lend-3"
       style="overflow:visible">
      <path
         inkscape:connector-curvature="0"
         id="path5746-6"
         style="fill-rule:evenodd;stroke-width:0.625;stroke-linejoin:round"
         d="M 8.7185878,4.0337352 -2.2072895,0.01601326 8.7185884,-4.0017078 c -1.7454984,2.3720609 -1.7354408,5.6174519 -6e-7,8.035443 z"
         transform="matrix(-1.1,0,0,-1.1,-1.1,0)" />
    </marker>
    <marker
       inkscape:stockid="Arrow2Lend"
       orient="auto"
       refY="0"
       refX="0"
       id="Arrow2Lend-4"
       style="overflow:visible">
      <path
         inkscape:connector-curvature="0"
         id="path5746-66"
         style="fill-rule:evenodd;stroke-width:0.625;stroke-linejoin:round"
         d="M 8.7185878,4.0337352 -2.2072895,0.01601326 8.7185884,-4.0017078 c -1.7454984,2.3720609 -1.7354408,5.6174519 -6e-7,8.035443 z"
         transform="matrix(-1.1,0,0,-1.1,-1.1,0)" />
    </marker>
    <marker
       inkscape:stockid="Arrow2Lend"
       orient="auto"
       refY="0"
       refX="0"
       id="Arrow2Lend-6"
       style="overflow:visible">
      <path
         inkscape:connector-curvature="0"
         id="path5746-5"
         style="fill-rule:evenodd;stroke-width:0.625;stroke-linejoin:round"
         d="M 8.7185878,4.0337352 -2.2072895,0.01601326 8.7185884,-4.0017078 c -1.7454984,2.3720609 -1.7354408,5.6174519 -6e-7,8.035443 z"
         transform="matrix(-1.1,0,0,-1.1,-1.1,0)" />
    </marker>
    <marker
       inkscape:stockid="Arrow2Lend"
       orient="auto"
       refY="0"
       refX="0"
       id="Arrow2Lend-61"
       style="overflow:visible">
      <path
         inkscape:connector-curvature="0"
         id="path5746-1"
         style="fill-rule:evenodd;stroke-width:0.625;stroke-linejoin:round"
         d="M 8.7185878,4.0337352 -2.2072895,0.01601326 8.7185884,-4.0017078 c -1.7454984,2.3720609 -1.7354408,5.6174519 -6e-7,8.035443 z"
         transform="matrix(-1.1,0,0,-1.1,-1.1,0)" />
    </marker>
    <marker
       inkscape:stockid="Arrow2Lend"
       orient="auto"
       refY="0"
       refX="0"
       id="Arrow2Lend-67"
       style="overflow:visible">
      <path
         inkscape:connector-curvature="0"
         id="path5746-2"
         style="fill-rule:evenodd;stroke-width:0.625;stroke-linejoin:round"
         d="M 8.7185878,4.0337352 -2.2072895,0.01601326 8.7185884,-4.0017078 c -1.7454984,2.3720609 -1.7354408,5.6174519 -6e-7,8.035443 z"
         transform="matrix(-1.1,0,0,-1.1,-1.1,0)" />
    </marker>
    <marker
       inkscape:stockid="Arrow2Lend"
       orient="auto"
       refY="0"
       refX="0"
       id="Arrow2Lend-7"
       style="overflow:visible">
      <path
         inkscape:connector-curvature="0"
         id="path5746-27"
         style="fill-rule:evenodd;stroke-width:0.625;stroke-linejoin:round"
         d="M 8.7185878,4.0337352 -2.2072895,0.01601326 8.7185884,-4.0017078 c -1.7454984,2.3720609 -1.7354408,5.6174519 -6e-7,8.035443 z"
         transform="matrix(-1.1,0,0,-1.1,-1.1,0)" />
    </marker>
    <marker
       inkscape:stockid="DotM"
       orient="auto"
       refY="0"
       refX="0"
       id="DotM-5"
       style="overflow:visible">
      <path
         inkscape:connector-curvature="0"
         id="path5789-4"
         d="m -2.5,-1 c 0,2.76 -2.24,5 -5,5 -2.76,0 -5,-2.24 -5,-5 0,-2.76 2.24,-5 5,-5 2.76,0 5,2.24 5,5 z"
         style="fill-rule:evenodd;stroke:#000000;stroke-width:1pt"
         transform="matrix(0.4,0,0,0.4,2.96,0.4)" />
    </marker>
    <marker
       inkscape:stockid="DotM"
       orient="auto"
       refY="0"
       refX="0"
       id="DotM-8"
       style="overflow:visible">
      <path
         inkscape:connector-curvature="0"
         id="path5789-1"
         d="m -2.5,-1 c 0,2.76 -2.24,5 -5,5 -2.76,0 -5,-2.24 -5,-5 0,-2.76 2.24,-5 5,-5 2.76,0 5,2.24 5,5 z"
         style="fill-rule:evenodd;stroke:#000000;stroke-width:1pt"
         transform="matrix(0.4,0,0,0.4,2.96,0.4)" />
    </marker>
    <marker
       inkscape:stockid="DotM"
       orient="auto"
       refY="0"
       refX="0"
       id="DotM-0"
       style="overflow:visible">
      <path
         inkscape:connector-curvature="0"
         id="path5789-17"
         d="m -2.5,-1 c 0,2.76 -2.24,5 -5,5 -2.76,0 -5,-2.24 -5,-5 0,-2.76 2.24,-5 5,-5 2.76,0 5,2.24 5,5 z"
         style="fill-rule:evenodd;stroke:#000000;stroke-width:1pt"
         transform="matrix(0.4,0,0,0.4,2.96,0.4)" />
    </marker>
    <marker
       inkscape:stockid="DotM"
       orient="auto"
       refY="0"
       refX="0"
       id="DotM-4"
       style="overflow:visible">
      <path
         inkscape:connector-curvature="0"
         id="path5789-12"
         d="m -2.5,-1 c 0,2.76 -2.24,5 -5,5 -2.76,0 -5,-2.24 -5,-5 0,-2.76 2.24,-5 5,-5 2.76,0 5,2.24 5,5 z"
         style="fill-rule:evenodd;stroke:#000000;stroke-width:1pt"
         transform="matrix(0.4,0,0,0.4,2.96,0.4)" />
    </marker>
    <marker
       inkscape:stockid="DotM"
       orient="auto"
       refY="0"
       refX="0"
       id="DotM-51"
       style="overflow:visible">
      <path
         inkscape:connector-curvature="0"
         id="path5789-7"
         d="m -2.5,-1 c 0,2.76 -2.24,5 -5,5 -2.76,0 -5,-2.24 -5,-5 0,-2.76 2.24,-5 5,-5 2.76,0 5,2.24 5,5 z"
         style="fill-rule:evenodd;stroke:#000000;stroke-width:1pt"
         transform="matrix(0.4,0,0,0.4,2.96,0.4)" />
    </marker>
    <marker
       inkscape:stockid="DotM"
       orient="auto"
       refY="0"
       refX="0"
       id="DotM-82"
       style="overflow:visible">
      <path
         inkscape:connector-curvature="0"
         id="path5789-8"
         d="m -2.5,-1 c 0,2.76 -2.24,5 -5,5 -2.76,0 -5,-2.24 -5,-5 0,-2.76 2.24,-5 5,-5 2.76,0 5,2.24 5,5 z"
         style="fill-rule:evenodd;stroke:#000000;stroke-width:1pt"
         transform="matrix(0.4,0,0,0.4,2.96,0.4)" />
    </marker>
    <marker
       inkscape:stockid="DotM"
       orient="auto"
       refY="0"
       refX="0"
       id="DotM-1"
       style="overflow:visible">
      <path
         inkscape:connector-curvature="0"
         id="path5789-11"
         d="m -2.5,-1 c 0,2.76 -2.24,5 -5,5 -2.76,0 -5,-2.24 -5,-5 0,-2.76 2.24,-5 5,-5 2.76,0 5,2.24 5,5 z"
         style="fill-rule:evenodd;stroke:#000000;stroke-width:1pt"
         transform="matrix(0.4,0,0,0.4,2.96,0.4)" />
    </marker>
    <marker
       inkscape:stockid="DotM"
       orient="auto"
       refY="0"
       refX="0"
       id="DotM-85"
       style="overflow:visible">
      <path
         inkscape:connector-curvature="0"
         id="path5789-9"
         d="m -2.5,-1 c 0,2.76 -2.24,5 -5,5 -2.76,0 -5,-2.24 -5,-5 0,-2.76 2.24,-5 5,-5 2.76,0 5,2.24 5,5 z"
         style="fill-rule:evenodd;stroke:#000000;stroke-width:1pt"
         transform="matrix(0.4,0,0,0.4,2.96,0.4)" />
    </marker>
    <marker
       inkscape:stockid="DotM"
       orient="auto"
       refY="0"
       refX="0"
       id="DotM-03"
       style="overflow:visible">
      <path
         inkscape:connector-curvature="0"
         id="path5789-48"
         d="m -2.5,-1 c 0,2.76 -2.24,5 -5,5 -2.76,0 -5,-2.24 -5,-5 0,-2.76 2.24,-5 5,-5 2.76,0 5,2.24 5,5 z"
         style="fill-rule:evenodd;stroke:#000000;stroke-width:1pt"
         transform="matrix(0.4,0,0,0.4,2.96,0.4)" />
    </marker>
    <marker
       inkscape:stockid="Arrow2Mend"
       orient="auto"
       refY="0"
       refX="0"
       id="Arrow2Mend-4"
       style="overflow:visible">
      <path
         inkscape:connector-curvature="0"
         id="path5752-4"
         style="fill-rule:evenodd;stroke-width:0.625;stroke-linejoin:round"
         d="M 8.7185878,4.0337352 -2.2072895,0.01601326 8.7185884,-4.0017078 c -1.7454984,2.3720609 -1.7354408,5.6174519 -6e-7,8.035443 z"
         transform="scale(-0.6,-0.6)" />
    </marker>
    <marker
       inkscape:stockid="Arrow2Mend"
       orient="auto"
       refY="0"
       refX="0"
       id="Arrow2Mend-3"
       style="overflow:visible">
      <path
         inkscape:connector-curvature="0"
         id="path5752-3"
         style="fill-rule:evenodd;stroke-width:0.625;stroke-linejoin:round"
         d="M 8.7185878,4.0337352 -2.2072895,0.01601326 8.7185884,-4.0017078 c -1.7454984,2.3720609 -1.7354408,5.6174519 -6e-7,8.035443 z"
         transform="scale(-0.6,-0.6)" />
    </marker>
    <marker
       inkscape:stockid="Arrow2Mend"
       orient="auto"
       refY="0"
       refX="0"
       id="Arrow2Mend-2"
       style="overflow:visible">
      <path
         inkscape:connector-curvature="0"
         id="path5752-2"
         style="fill-rule:evenodd;stroke-width:0.625;stroke-linejoin:round"
         d="M 8.7185878,4.0337352 -2.2072895,0.01601326 8.7185884,-4.0017078 c -1.7454984,2.3720609 -1.7354408,5.6174519 -6e-7,8.035443 z"
         transform="scale(-0.6,-0.6)" />
    </marker>
    <marker
       inkscape:stockid="Arrow2Mend"
       orient="auto"
       refY="0"
       refX="0"
       id="Arrow2Mend-1"
       style="overflow:visible">
      <path
         inkscape:connector-curvature="0"
         id="path5752-6"
         style="fill-rule:evenodd;stroke-width:0.625;stroke-linejoin:round"
         d="M 8.7185878,4.0337352 -2.2072895,0.01601326 8.7185884,-4.0017078 c -1.7454984,2.3720609 -1.7354408,5.6174519 -6e-7,8.035443 z"
         transform="scale(-0.6,-0.6)" />
    </marker>
    <marker
       inkscape:stockid="Arrow2Mend"
       orient="auto"
       refY="0"
       refX="0"
       id="Arrow2Mend-7"
       style="overflow:visible">
      <path
         inkscape:connector-curvature="0"
         id="path5752-0"
         style="fill-rule:evenodd;stroke-width:0.625;stroke-linejoin:round"
         d="M 8.7185878,4.0337352 -2.2072895,0.01601326 8.7185884,-4.0017078 c -1.7454984,2.3720609 -1.7354408,5.6174519 -6e-7,8.035443 z"
         transform="scale(-0.6,-0.6)" />
    </marker>
  </defs>
  <sodipodi:namedview
     pagecolor="#ffffff"
     bordercolor="#666666"
     borderopacity="1"
     objecttolerance="10"
     gridtolerance="10"
     guidetolerance="10"
     inkscape:pageopacity="0"
     inkscape:pageshadow="2"
     inkscape:window-width="1920"
     inkscape:window-height="1151"
     id="namedview424"
     showgrid="false"
     inkscape:zoom="0.86974134"
     inkscape:cx="569.22676"
     inkscape:cy="116.99693"
     inkscape:window-x="0"
     inkscape:window-y="25"
     inkscape:window-maximized="1"
     inkscape:current-layer="svg2" />
  <text
     font-size="12.8"
     style="font-size:12.80000019px;font-style:normal;font-weight:normal;text-anchor:start;fill:none;font-family:sans-serif"
     x="584"
     y="196.95816"
     id="text4">
    <tspan
       x="584"
       y="196.95816"
       id="tspan6"
       style="fill:none" />
  </text>
  <flowRoot
     xml:space="preserve"
     id="flowRoot5201"
     style="font-size:12px;font-style:normal;font-weight:normal;line-height:125%;letter-spacing:0px;word-spacing:0px;fill:none;stroke:none;font-family:Sans"
     transform="translate(0,-35.075093)"><flowRegion
       id="flowRegion5203"><rect
         id="rect5205"
         width="130.72659"
         height="64.957314"
         x="625.21417"
         y="398.18796"
         style="fill:none" /></flowRegion><flowPara
       id="flowPara5207" /></flowRoot>  <flowRoot
     xml:space="preserve"
     id="flowRoot5209"
     style="font-size:12px;font-style:normal;font-weight:normal;line-height:125%;letter-spacing:0px;word-spacing:0px;fill:none;stroke:none;font-family:Sans"
     transform="translate(0,-35.075093)"><flowRegion
       id="flowRegion5211"><rect
         id="rect5213"
         width="81.196648"
         height="34.914558"
         x="590.29962"
         y="443.65808"
         style="fill:none" /></flowRegion><flowPara
       id="flowPara5215" /></flowRoot>  <flowRoot
     xml:space="preserve"
     id="flowRoot3232"
     style="font-size:12px;font-style:normal;font-weight:normal;line-height:125%;letter-spacing:0px;word-spacing:0px;fill:none;stroke:none;font-family:Sans"
     transform="translate(0,-35.075093)"><flowRegion
       id="flowRegion3234"><rect
         id="rect3236"
         width="116.92317"
         height="27.606859"
         x="612.22272"
         y="437.16235"
         style="fill:none" /></flowRegion><flowPara
       id="flowPara3238" /></flowRoot>  <text
     xml:space="preserve"
     style="font-size:12.2484436px;font-style:normal;font-weight:normal;text-align:center;line-height:125%;letter-spacing:0px;word-spacing:0px;text-anchor:middle;fill:#000000;fill-opacity:1;stroke:none;font-family:Sans"
     x="685.74579"
     y="91.097626"
     id="text3226"
     sodipodi:linespacing="125%"><tspan
       sodipodi:role="line"
       x="685.74579"
       y="91.097626"
       id="tspan3230">L2/3</tspan></text>
  <text
     xml:space="preserve"
     style="font-size:12.2484436px;font-style:normal;font-weight:normal;text-align:center;line-height:125%;letter-spacing:0px;word-spacing:0px;text-anchor:middle;fill:#000000;fill-opacity:1;stroke:none;font-family:Sans"
     x="679.77704"
     y="128.77158"
     id="text3226-1"
     sodipodi:linespacing="125%"><tspan
       sodipodi:role="line"
       x="679.77704"
       y="128.77158"
       id="tspan3230-9">L4</tspan></text>
  <text
     xml:space="preserve"
     style="font-size:12.2484436px;font-style:normal;font-weight:normal;text-align:center;line-height:125%;letter-spacing:0px;word-spacing:0px;text-anchor:middle;fill:#000000;fill-opacity:1;stroke:none;font-family:Sans"
     x="679.77704"
     y="165.87135"
     id="text3226-4"
     sodipodi:linespacing="125%"><tspan
       sodipodi:role="line"
       x="679.77704"
       y="165.87135"
       id="tspan3230-4">L5</tspan></text>
  <text
     xml:space="preserve"
     style="font-size:12.2484436px;font-style:normal;font-weight:normal;text-align:center;line-height:125%;letter-spacing:0px;word-spacing:0px;text-anchor:middle;fill:#000000;fill-opacity:1;stroke:none;font-family:Sans"
     x="679.77704"
     y="203.1386"
     id="text3226-15"
     sodipodi:linespacing="125%"><tspan
       sodipodi:role="line"
       x="679.77704"
       y="203.1386"
       id="tspan3230-5">L6</tspan></text>
  <rect
     style="fill:none;stroke:#000000;stroke-width:0.55674744;stroke-opacity:1"
     id="use5458"
     width="110.60059"
     height="32.604797"
     x="534.11926"
     y="71.250748"
     ry="3.4611826" />
  <rect
     style="fill:none;stroke:#000000;stroke-width:0.55674744;stroke-opacity:1"
     id="use5460"
     width="110.60059"
     height="32.604797"
     x="534.11926"
     y="108.43726"
     ry="3.4611826" />
  <rect
     style="fill:none;stroke:#000000;stroke-width:0.55674744;stroke-opacity:1"
     id="use5462"
     width="110.60059"
     height="32.604797"
     x="534.11926"
     y="145.62375"
     ry="3.4611826" />
  <rect
     style="fill:none;stroke:#000000;stroke-width:0.39891839;stroke-opacity:1"
     id="rect5383"
     width="129.29842"
     height="180.27901"
     x="524.77039"
     y="42.562706"
     ry="6.3713498" />
  <rect
     ry="3.4611826"
     y="182.81026"
     x="534.11926"
     height="32.604797"
     width="110.60059"
     id="use5464"
     style="fill:none;stroke:#000000;stroke-width:0.55674744;stroke-opacity:1" />
  <g
     id="g9090"
     transform="translate(-159.22954,-21.713151)">
    <path
       inkscape:transform-center-y="-5.1673224"
       transform="matrix(0.55674745,0,0,0.55674745,648.21894,-95.762529)"
       d="m 128.60892,352.75985 17.90013,31.00393 -35.80026,0 z"
       inkscape:randomized="0"
       inkscape:rounded="0"
       inkscape:flatsided="true"
       sodipodi:arg2="-0.52359878"
       sodipodi:arg1="-1.5707963"
       sodipodi:r2="10.334646"
       sodipodi:r1="20.669291"
       sodipodi:cy="373.42914"
       sodipodi:cx="128.60892"
       sodipodi:sides="3"
       id="path5604"
       style="fill:#dc3c28;fill-opacity:1;stroke:none"
       sodipodi:type="star" />
    <path
       inkscape:transform-center-y="-5.1673224"
       transform="matrix(0.55674745,0,0,0.55674745,648.21894,-58.576031)"
       d="m 128.60892,352.75985 17.90013,31.00393 -35.80026,0 z"
       inkscape:randomized="0"
       inkscape:rounded="0"
       inkscape:flatsided="true"
       sodipodi:arg2="-0.52359878"
       sodipodi:arg1="-1.5707963"
       sodipodi:r2="10.334646"
       sodipodi:r1="20.669291"
       sodipodi:cy="373.42914"
       sodipodi:cx="128.60892"
       sodipodi:sides="3"
       id="path5604-5"
       style="fill:#dc3c28;fill-opacity:1;stroke:none"
       sodipodi:type="star" />
    <path
       inkscape:transform-center-y="-5.1673224"
       transform="matrix(0.55674745,0,0,0.55674745,648.21894,-21.389522)"
       d="m 128.60892,352.75985 17.90013,31.00393 -35.80026,0 z"
       inkscape:randomized="0"
       inkscape:rounded="0"
       inkscape:flatsided="true"
       sodipodi:arg2="-0.52359878"
       sodipodi:arg1="-1.5707963"
       sodipodi:r2="10.334646"
       sodipodi:r1="20.669291"
       sodipodi:cy="373.42914"
       sodipodi:cx="128.60892"
       sodipodi:sides="3"
       id="path5604-1"
       style="fill:#dc3c28;fill-opacity:1;stroke:none"
       sodipodi:type="star" />
    <path
       inkscape:transform-center-y="-5.1673224"
       transform="matrix(0.55674745,0,0,0.55674745,648.21894,15.796982)"
       d="m 128.60892,352.75985 17.90013,31.00393 -35.80026,0 z"
       inkscape:randomized="0"
       inkscape:rounded="0"
       inkscape:flatsided="true"
       sodipodi:arg2="-0.52359878"
       sodipodi:arg1="-1.5707963"
       sodipodi:r2="10.334646"
       sodipodi:r1="20.669291"
       sodipodi:cy="373.42914"
       sodipodi:cx="128.60892"
       sodipodi:sides="3"
       id="path5604-2"
       style="fill:#dc3c28;fill-opacity:1;stroke:none"
       sodipodi:type="star" />
  </g>
  <g
     style="fill:#003dff;fill-opacity:1;stroke:none"
     id="g9028"
     transform="translate(-159.34256,-21.280482)">
    <path
       sodipodi:open="true"
       sodipodi:end="6.4927819"
       sodipodi:start="0.27231392"
       transform="matrix(0.44455316,0,0,0.44455316,573.16151,46.19626)"
       d="m 481.58529,145.99557 c -2.81442,10.07847 -13.26617,15.96714 -23.34464,13.15272 -10.07847,-2.81442 -15.96714,-13.26617 -13.15272,-23.34464 2.81442,-10.07847 13.26617,-15.96714 23.34464,-13.15272 9.63436,2.69041 15.5175,12.40683 13.43624,22.19087"
       sodipodi:ry="18.94685"
       sodipodi:rx="18.94685"
       sodipodi:cy="140.89961"
       sodipodi:cx="463.33661"
       id="path5622"
       style="fill:#003dff;fill-opacity:1;stroke:none"
       sodipodi:type="arc" />
    <path
       sodipodi:open="true"
       sodipodi:end="6.4927819"
       sodipodi:start="0.27231392"
       transform="matrix(0.44455316,0,0,0.44455316,573.16151,83.382758)"
       d="m 481.58529,145.99557 c -2.81442,10.07847 -13.26617,15.96714 -23.34464,13.15272 -10.07847,-2.81442 -15.96714,-13.26617 -13.15272,-23.34464 2.81442,-10.07847 13.26617,-15.96714 23.34464,-13.15272 9.63436,2.69041 15.5175,12.40683 13.43624,22.19087"
       sodipodi:ry="18.94685"
       sodipodi:rx="18.94685"
       sodipodi:cy="140.89961"
       sodipodi:cx="463.33661"
       id="path5622-0"
       style="fill:#003dff;fill-opacity:1;stroke:none"
       sodipodi:type="arc" />
    <path
       sodipodi:open="true"
       sodipodi:end="6.4927819"
       sodipodi:start="0.27231392"
       transform="matrix(0.44455316,0,0,0.44455316,573.16151,120.56927)"
       d="m 481.58529,145.99557 c -2.81442,10.07847 -13.26617,15.96714 -23.34464,13.15272 -10.07847,-2.81442 -15.96714,-13.26617 -13.15272,-23.34464 2.81442,-10.07847 13.26617,-15.96714 23.34464,-13.15272 9.63436,2.69041 15.5175,12.40683 13.43624,22.19087"
       sodipodi:ry="18.94685"
       sodipodi:rx="18.94685"
       sodipodi:cy="140.89961"
       sodipodi:cx="463.33661"
       id="path5622-5"
       style="fill:#003dff;fill-opacity:1;stroke:none"
       sodipodi:type="arc" />
    <path
       sodipodi:open="true"
       sodipodi:end="6.4927819"
       sodipodi:start="0.27231392"
       transform="matrix(0.44455316,0,0,0.44455316,573.16151,157.75577)"
       d="m 481.58529,145.99557 c -2.81442,10.07847 -13.26617,15.96714 -23.34464,13.15272 -10.07847,-2.81442 -15.96714,-13.26617 -13.15272,-23.34464 2.81442,-10.07847 13.26617,-15.96714 23.34464,-13.15272 9.63436,2.69041 15.5175,12.40683 13.43624,22.19087"
       sodipodi:ry="18.94685"
       sodipodi:rx="18.94685"
       sodipodi:cy="140.89961"
       sodipodi:cx="463.33661"
       id="path5622-9"
       style="fill:#003dff;fill-opacity:1;stroke:none"
       sodipodi:type="arc" />
  </g>
  <text
     xml:space="preserve"
     style="font-size:12.2484436px;font-style:normal;font-weight:normal;text-align:center;line-height:125%;letter-spacing:0px;word-spacing:0px;text-anchor:middle;fill:#dc3c28;fill-opacity:1;stroke:none;font-family:Sans"
     x="560.914"
     y="241.30321"
     id="text3226-3"
     sodipodi:linespacing="125%"><tspan
       sodipodi:role="line"
       x="560.914"
       y="241.30321"
       id="tspan3230-7">exc.</tspan></text>
  <text
     xml:space="preserve"
     style="font-size:12.2484436px;font-style:normal;font-weight:normal;text-align:center;line-height:125%;letter-spacing:0px;word-spacing:0px;text-anchor:middle;fill:#003dff;fill-opacity:1;stroke:none;font-family:Sans"
     x="619.87903"
     y="241.30321"
     id="text3226-3-4"
     sodipodi:linespacing="125%"><tspan
       sodipodi:role="line"
       x="619.87903"
       y="241.30321"
       id="tspan3230-7-6">inh.</tspan></text>
  <text
     xml:space="preserve"
     style="font-size:12.2484436px;font-style:normal;font-weight:normal;text-align:center;line-height:125%;letter-spacing:0px;word-spacing:0px;text-anchor:middle;fill:#000000;fill-opacity:1;stroke:none;font-family:Sans"
     x="679.77704"
     y="61.486221"
     id="text3226-17"
     sodipodi:linespacing="125%"><tspan
       sodipodi:role="line"
       x="679.77704"
       y="61.486221"
       id="tspan3230-1">L1</tspan></text>
  <rect
     style="fill:none;stroke:#000000;stroke-width:0.55674744;stroke-opacity:1"
     id="use5458-4"
     width="110.60059"
     height="18.605"
     x="534.11926"
     y="47.664597"
     ry="3.4611826" />
</svg>
