<?xml version="1.0" encoding="UTF-8" standalone="no"?>
<svg
   xmlns:dc="http://purl.org/dc/elements/1.1/"
   xmlns:cc="http://creativecommons.org/ns#"
   xmlns:rdf="http://www.w3.org/1999/02/22-rdf-syntax-ns#"
   xmlns:svg="http://www.w3.org/2000/svg"
   xmlns="http://www.w3.org/2000/svg"
   xmlns:sodipodi="http://sodipodi.sourceforge.net/DTD/sodipodi-0.dtd"
   xmlns:inkscape="http://www.inkscape.org/namespaces/inkscape"
   width="380"
   height="431"
   viewBox="491 31 210.91407 239.95817"
   id="svg2"
   version="1.1"
   inkscape:version="0.48.4 r9939"
   sodipodi:docname="microcircuit_model_full.svg">
  <metadata
     id="metadata428">
    <rdf:RDF>
      <cc:Work
         rdf:about="">
        <dc:format>image/svg+xml</dc:format>
        <dc:type
           rdf:resource="http://purl.org/dc/dcmitype/StillImage" />
        <dc:title></dc:title>
      </cc:Work>
    </rdf:RDF>
  </metadata>
  <defs
     id="defs426">
    <marker
       inkscape:stockid="Arrow2Mend"
       orient="auto"
       refY="0"
       refX="0"
       id="Arrow2Mend"
       style="overflow:visible">
      <path
         id="path5752"
         style="fill-rule:evenodd;stroke-width:0.625;stroke-linejoin:round"
         d="M 8.7185878,4.0337352 -2.2072895,0.01601326 8.7185884,-4.0017078 c -1.7454984,2.3720609 -1.7354408,5.6174519 -6e-7,8.035443 z"
         transform="scale(-0.6,-0.6)"
         inkscape:connector-curvature="0" />
    </marker>
    <marker
       inkscape:stockid="Arrow1Mend"
       orient="auto"
       refY="0"
       refX="0"
       id="Arrow1Mend"
       style="overflow:visible">
      <path
         id="path5734"
         d="M 0,0 5,-5 -12.5,0 5,5 0,0 z"
         style="fill-rule:evenodd;stroke:#000000;stroke-width:1pt"
         transform="matrix(-0.4,0,0,-0.4,-4,0)"
         inkscape:connector-curvature="0" />
    </marker>
    <inkscape:perspective
       sodipodi:type="inkscape:persp3d"
       inkscape:vp_x="0 : 247 : 1"
       inkscape:vp_y="0 : 1000 : 0"
       inkscape:vp_z="800 : 247 : 1"
       inkscape:persp3d-origin="400 : 164.66667 : 1"
       id="perspective8520" />
    <marker
       inkscape:stockid="DotM"
       orient="auto"
       refY="0"
       refX="0"
       id="DotM"
       style="overflow:visible">
      <path
         id="path5789"
         d="m -2.5,-1 c 0,2.76 -2.24,5 -5,5 -2.76,0 -5,-2.24 -5,-5 0,-2.76 2.24,-5 5,-5 2.76,0 5,2.24 5,5 z"
         style="fill-rule:evenodd;stroke:#000000;stroke-width:1pt"
         transform="matrix(0.4,0,0,0.4,2.96,0.4)"
         inkscape:connector-curvature="0" />
    </marker>
    <marker
       inkscape:stockid="DotL"
       orient="auto"
       refY="0"
       refX="0"
       id="DotL"
       style="overflow:visible">
      <path
         id="path5786"
         d="m -2.5,-1 c 0,2.76 -2.24,5 -5,5 -2.76,0 -5,-2.24 -5,-5 0,-2.76 2.24,-5 5,-5 2.76,0 5,2.24 5,5 z"
         style="fill-rule:evenodd;stroke:#000000;stroke-width:1pt"
         transform="matrix(0.8,0,0,0.8,5.92,0.8)"
         inkscape:connector-curvature="0" />
    </marker>
    <marker
       inkscape:stockid="DiamondLstart"
       orient="auto"
       refY="0"
       refX="0"
       id="DiamondLstart"
       style="overflow:visible">
      <path
         id="path5813"
         d="M 0,-7.0710768 -7.0710894,0 0,7.0710589 7.0710462,0 0,-7.0710768 z"
         style="fill-rule:evenodd;stroke:#000000;stroke-width:1pt"
         transform="matrix(0.8,0,0,0.8,5.6,0)"
         inkscape:connector-curvature="0" />
    </marker>
    <marker
       inkscape:stockid="Arrow2Lend"
       orient="auto"
       refY="0"
       refX="0"
       id="Arrow2Lend"
       style="overflow:visible">
      <path
         id="path5746"
         style="fill-rule:evenodd;stroke-width:0.625;stroke-linejoin:round"
         d="M 8.7185878,4.0337352 -2.2072895,0.01601326 8.7185884,-4.0017078 c -1.7454984,2.3720609 -1.7354408,5.6174519 -6e-7,8.035443 z"
         transform="matrix(-1.1,0,0,-1.1,-1.1,0)"
         inkscape:connector-curvature="0" />
    </marker>
    <marker
       inkscape:stockid="Arrow2Lend"
       orient="auto"
       refY="0"
       refX="0"
       id="Arrow2Lend-3"
       style="overflow:visible">
      <path
         inkscape:connector-curvature="0"
         id="path5746-6"
         style="fill-rule:evenodd;stroke-width:0.625;stroke-linejoin:round"
         d="M 8.7185878,4.0337352 -2.2072895,0.01601326 8.7185884,-4.0017078 c -1.7454984,2.3720609 -1.7354408,5.6174519 -6e-7,8.035443 z"
         transform="matrix(-1.1,0,0,-1.1,-1.1,0)" />
    </marker>
    <marker
       inkscape:stockid="Arrow2Lend"
       orient="auto"
       refY="0"
       refX="0"
       id="Arrow2Lend-4"
       style="overflow:visible">
      <path
         inkscape:connector-curvature="0"
         id="path5746-66"
         style="fill-rule:evenodd;stroke-width:0.625;stroke-linejoin:round"
         d="M 8.7185878,4.0337352 -2.2072895,0.01601326 8.7185884,-4.0017078 c -1.7454984,2.3720609 -1.7354408,5.6174519 -6e-7,8.035443 z"
         transform="matrix(-1.1,0,0,-1.1,-1.1,0)" />
    </marker>
    <marker
       inkscape:stockid="Arrow2Lend"
       orient="auto"
       refY="0"
       refX="0"
       id="Arrow2Lend-6"
       style="overflow:visible">
      <path
         inkscape:connector-curvature="0"
         id="path5746-5"
         style="fill-rule:evenodd;stroke-width:0.625;stroke-linejoin:round"
         d="M 8.7185878,4.0337352 -2.2072895,0.01601326 8.7185884,-4.0017078 c -1.7454984,2.3720609 -1.7354408,5.6174519 -6e-7,8.035443 z"
         transform="matrix(-1.1,0,0,-1.1,-1.1,0)" />
    </marker>
    <marker
       inkscape:stockid="Arrow2Lend"
       orient="auto"
       refY="0"
       refX="0"
       id="Arrow2Lend-61"
       style="overflow:visible">
      <path
         inkscape:connector-curvature="0"
         id="path5746-1"
         style="fill-rule:evenodd;stroke-width:0.625;stroke-linejoin:round"
         d="M 8.7185878,4.0337352 -2.2072895,0.01601326 8.7185884,-4.0017078 c -1.7454984,2.3720609 -1.7354408,5.6174519 -6e-7,8.035443 z"
         transform="matrix(-1.1,0,0,-1.1,-1.1,0)" />
    </marker>
    <marker
       inkscape:stockid="Arrow2Lend"
       orient="auto"
       refY="0"
       refX="0"
       id="Arrow2Lend-67"
       style="overflow:visible">
      <path
         inkscape:connector-curvature="0"
         id="path5746-2"
         style="fill-rule:evenodd;stroke-width:0.625;stroke-linejoin:round"
         d="M 8.7185878,4.0337352 -2.2072895,0.01601326 8.7185884,-4.0017078 c -1.7454984,2.3720609 -1.7354408,5.6174519 -6e-7,8.035443 z"
         transform="matrix(-1.1,0,0,-1.1,-1.1,0)" />
    </marker>
    <marker
       inkscape:stockid="Arrow2Lend"
       orient="auto"
       refY="0"
       refX="0"
       id="Arrow2Lend-7"
       style="overflow:visible">
      <path
         inkscape:connector-curvature="0"
         id="path5746-27"
         style="fill-rule:evenodd;stroke-width:0.625;stroke-linejoin:round"
         d="M 8.7185878,4.0337352 -2.2072895,0.01601326 8.7185884,-4.0017078 c -1.7454984,2.3720609 -1.7354408,5.6174519 -6e-7,8.035443 z"
         transform="matrix(-1.1,0,0,-1.1,-1.1,0)" />
    </marker>
    <marker
       inkscape:stockid="DotM"
       orient="auto"
       refY="0"
       refX="0"
       id="DotM-5"
       style="overflow:visible">
      <path
         inkscape:connector-curvature="0"
         id="path5789-4"
         d="m -2.5,-1 c 0,2.76 -2.24,5 -5,5 -2.76,0 -5,-2.24 -5,-5 0,-2.76 2.24,-5 5,-5 2.76,0 5,2.24 5,5 z"
         style="fill-rule:evenodd;stroke:#000000;stroke-width:1pt"
         transform="matrix(0.4,0,0,0.4,2.96,0.4)" />
    </marker>
    <marker
       inkscape:stockid="DotM"
       orient="auto"
       refY="0"
       refX="0"
       id="DotM-8"
       style="overflow:visible">
      <path
         inkscape:connector-curvature="0"
         id="path5789-1"
         d="m -2.5,-1 c 0,2.76 -2.24,5 -5,5 -2.76,0 -5,-2.24 -5,-5 0,-2.76 2.24,-5 5,-5 2.76,0 5,2.24 5,5 z"
         style="fill-rule:evenodd;stroke:#000000;stroke-width:1pt"
         transform="matrix(0.4,0,0,0.4,2.96,0.4)" />
    </marker>
    <marker
       inkscape:stockid="DotM"
       orient="auto"
       refY="0"
       refX="0"
       id="DotM-0"
       style="overflow:visible">
      <path
         inkscape:connector-curvature="0"
         id="path5789-17"
         d="m -2.5,-1 c 0,2.76 -2.24,5 -5,5 -2.76,0 -5,-2.24 -5,-5 0,-2.76 2.24,-5 5,-5 2.76,0 5,2.24 5,5 z"
         style="fill-rule:evenodd;stroke:#000000;stroke-width:1pt"
         transform="matrix(0.4,0,0,0.4,2.96,0.4)" />
    </marker>
    <marker
       inkscape:stockid="DotM"
       orient="auto"
       refY="0"
       refX="0"
       id="DotM-4"
       style="overflow:visible">
      <path
         inkscape:connector-curvature="0"
         id="path5789-12"
         d="m -2.5,-1 c 0,2.76 -2.24,5 -5,5 -2.76,0 -5,-2.24 -5,-5 0,-2.76 2.24,-5 5,-5 2.76,0 5,2.24 5,5 z"
         style="fill-rule:evenodd;stroke:#000000;stroke-width:1pt"
         transform="matrix(0.4,0,0,0.4,2.96,0.4)" />
    </marker>
    <marker
       inkscape:stockid="DotM"
       orient="auto"
       refY="0"
       refX="0"
       id="DotM-51"
       style="overflow:visible">
      <path
         inkscape:connector-curvature="0"
         id="path5789-7"
         d="m -2.5,-1 c 0,2.76 -2.24,5 -5,5 -2.76,0 -5,-2.24 -5,-5 0,-2.76 2.24,-5 5,-5 2.76,0 5,2.24 5,5 z"
         style="fill-rule:evenodd;stroke:#000000;stroke-width:1pt"
         transform="matrix(0.4,0,0,0.4,2.96,0.4)" />
    </marker>
    <marker
       inkscape:stockid="DotM"
       orient="auto"
       refY="0"
       refX="0"
       id="DotM-82"
       style="overflow:visible">
      <path
         inkscape:connector-curvature="0"
         id="path5789-8"
         d="m -2.5,-1 c 0,2.76 -2.24,5 -5,5 -2.76,0 -5,-2.24 -5,-5 0,-2.76 2.24,-5 5,-5 2.76,0 5,2.24 5,5 z"
         style="fill-rule:evenodd;stroke:#000000;stroke-width:1pt"
         transform="matrix(0.4,0,0,0.4,2.96,0.4)" />
    </marker>
    <marker
       inkscape:stockid="DotM"
       orient="auto"
       refY="0"
       refX="0"
       id="DotM-1"
       style="overflow:visible">
      <path
         inkscape:connector-curvature="0"
         id="path5789-11"
         d="m -2.5,-1 c 0,2.76 -2.24,5 -5,5 -2.76,0 -5,-2.24 -5,-5 0,-2.76 2.24,-5 5,-5 2.76,0 5,2.24 5,5 z"
         style="fill-rule:evenodd;stroke:#000000;stroke-width:1pt"
         transform="matrix(0.4,0,0,0.4,2.96,0.4)" />
    </marker>
    <marker
       inkscape:stockid="DotM"
       orient="auto"
       refY="0"
       refX="0"
       id="DotM-85"
       style="overflow:visible">
      <path
         inkscape:connector-curvature="0"
         id="path5789-9"
         d="m -2.5,-1 c 0,2.76 -2.24,5 -5,5 -2.76,0 -5,-2.24 -5,-5 0,-2.76 2.24,-5 5,-5 2.76,0 5,2.24 5,5 z"
         style="fill-rule:evenodd;stroke:#000000;stroke-width:1pt"
         transform="matrix(0.4,0,0,0.4,2.96,0.4)" />
    </marker>
    <marker
       inkscape:stockid="DotM"
       orient="auto"
       refY="0"
       refX="0"
       id="DotM-03"
       style="overflow:visible">
      <path
         inkscape:connector-curvature="0"
         id="path5789-48"
         d="m -2.5,-1 c 0,2.76 -2.24,5 -5,5 -2.76,0 -5,-2.24 -5,-5 0,-2.76 2.24,-5 5,-5 2.76,0 5,2.24 5,5 z"
         style="fill-rule:evenodd;stroke:#000000;stroke-width:1pt"
         transform="matrix(0.4,0,0,0.4,2.96,0.4)" />
    </marker>
    <marker
       inkscape:stockid="Arrow2Mend"
       orient="auto"
       refY="0"
       refX="0"
       id="Arrow2Mend-4"
       style="overflow:visible">
      <path
         inkscape:connector-curvature="0"
         id="path5752-4"
         style="fill-rule:evenodd;stroke-width:0.625;stroke-linejoin:round"
         d="M 8.7185878,4.0337352 -2.2072895,0.01601326 8.7185884,-4.0017078 c -1.7454984,2.3720609 -1.7354408,5.6174519 -6e-7,8.035443 z"
         transform="scale(-0.6,-0.6)" />
    </marker>
    <marker
       inkscape:stockid="Arrow2Mend"
       orient="auto"
       refY="0"
       refX="0"
       id="Arrow2Mend-3"
       style="overflow:visible">
      <path
         inkscape:connector-curvature="0"
         id="path5752-3"
         style="fill-rule:evenodd;stroke-width:0.625;stroke-linejoin:round"
         d="M 8.7185878,4.0337352 -2.2072895,0.01601326 8.7185884,-4.0017078 c -1.7454984,2.3720609 -1.7354408,5.6174519 -6e-7,8.035443 z"
         transform="scale(-0.6,-0.6)" />
    </marker>
    <marker
       inkscape:stockid="Arrow2Mend"
       orient="auto"
       refY="0"
       refX="0"
       id="Arrow2Mend-2"
       style="overflow:visible">
      <path
         inkscape:connector-curvature="0"
         id="path5752-2"
         style="fill-rule:evenodd;stroke-width:0.625;stroke-linejoin:round"
         d="M 8.7185878,4.0337352 -2.2072895,0.01601326 8.7185884,-4.0017078 c -1.7454984,2.3720609 -1.7354408,5.6174519 -6e-7,8.035443 z"
         transform="scale(-0.6,-0.6)" />
    </marker>
    <marker
       inkscape:stockid="Arrow2Mend"
       orient="auto"
       refY="0"
       refX="0"
       id="Arrow2Mend-1"
       style="overflow:visible">
      <path
         inkscape:connector-curvature="0"
         id="path5752-6"
         style="fill-rule:evenodd;stroke-width:0.625;stroke-linejoin:round"
         d="M 8.7185878,4.0337352 -2.2072895,0.01601326 8.7185884,-4.0017078 c -1.7454984,2.3720609 -1.7354408,5.6174519 -6e-7,8.035443 z"
         transform="scale(-0.6,-0.6)" />
    </marker>
    <marker
       inkscape:stockid="Arrow2Mend"
       orient="auto"
       refY="0"
       refX="0"
       id="Arrow2Mend-7"
       style="overflow:visible">
      <path
         inkscape:connector-curvature="0"
         id="path5752-0"
         style="fill-rule:evenodd;stroke-width:0.625;stroke-linejoin:round"
         d="M 8.7185878,4.0337352 -2.2072895,0.01601326 8.7185884,-4.0017078 c -1.7454984,2.3720609 -1.7354408,5.6174519 -6e-7,8.035443 z"
         transform="scale(-0.6,-0.6)" />
    </marker>
  </defs>
  <sodipodi:namedview
     pagecolor="#ffffff"
     bordercolor="#666666"
     borderopacity="1"
     objecttolerance="10"
     gridtolerance="10"
     guidetolerance="10"
     inkscape:pageopacity="0"
     inkscape:pageshadow="2"
     inkscape:window-width="1920"
     inkscape:window-height="1151"
     id="namedview424"
     showgrid="false"
     inkscape:zoom="1.23"
     inkscape:cx="-48.402855"
     inkscape:cy="257.48792"
     inkscape:window-x="0"
     inkscape:window-y="25"
     inkscape:window-maximized="1"
     inkscape:current-layer="svg2" />
  <text
     font-size="12.8"
     style="font-size:12.80000019px;font-style:normal;font-weight:normal;text-anchor:start;fill:none;font-family:sans-serif"
     x="584"
     y="196.95816"
     id="text4">
    <tspan
       x="584"
       y="196.95816"
       id="tspan6"
       style="fill:none" />
  </text>
  <flowRoot
     xml:space="preserve"
     id="flowRoot5201"
     style="font-size:12px;font-style:normal;font-weight:normal;line-height:125%;letter-spacing:0px;word-spacing:0px;fill:none;stroke:none;font-family:Sans"
     transform="translate(0,-35.075093)"><flowRegion
       id="flowRegion5203"><rect
         id="rect5205"
         width="130.72659"
         height="64.957314"
         x="625.21417"
         y="398.18796"
         style="fill:none" /></flowRegion><flowPara
       id="flowPara5207" /></flowRoot>  <flowRoot
     xml:space="preserve"
     id="flowRoot5209"
     style="font-size:12px;font-style:normal;font-weight:normal;line-height:125%;letter-spacing:0px;word-spacing:0px;fill:none;stroke:none;font-family:Sans"
     transform="translate(0,-35.075093)"><flowRegion
       id="flowRegion5211"><rect
         id="rect5213"
         width="81.196648"
         height="34.914558"
         x="590.29962"
         y="443.65808"
         style="fill:none" /></flowRegion><flowPara
       id="flowPara5215" /></flowRoot>  <flowRoot
     xml:space="preserve"
     id="flowRoot3232"
     style="font-size:12px;font-style:normal;font-weight:normal;line-height:125%;letter-spacing:0px;word-spacing:0px;fill:none;stroke:none;font-family:Sans"
     transform="translate(0,-35.075093)"><flowRegion
       id="flowRegion3234"><rect
         id="rect3236"
         width="116.92317"
         height="27.606859"
         x="612.22272"
         y="437.16235"
         style="fill:none" /></flowRegion><flowPara
       id="flowPara3238" /></flowRoot>  <text
     xml:space="preserve"
     style="font-size:12.2484436px;font-style:normal;font-weight:normal;text-align:center;line-height:125%;letter-spacing:0px;word-spacing:0px;text-anchor:middle;fill:#000000;fill-opacity:1;stroke:none;font-family:Sans"
     x="684.63226"
     y="103.34606"
     id="text3226"
     sodipodi:linespacing="125%"><tspan
       sodipodi:role="line"
       x="684.63226"
       y="103.34606"
       id="tspan3230">L23</tspan></text>
  <text
     xml:space="preserve"
     style="font-size:12.2484436px;font-style:normal;font-weight:normal;text-align:center;line-height:125%;letter-spacing:0px;word-spacing:0px;text-anchor:middle;fill:#000000;fill-opacity:1;stroke:none;font-family:Sans"
     x="680.73285"
     y="141.02002"
     id="text3226-1"
     sodipodi:linespacing="125%"><tspan
       sodipodi:role="line"
       x="680.73285"
       y="141.02002"
       id="tspan3230-9">L4</tspan></text>
  <text
     xml:space="preserve"
     style="font-size:12.2484436px;font-style:normal;font-weight:normal;text-align:center;line-height:125%;letter-spacing:0px;word-spacing:0px;text-anchor:middle;fill:#000000;fill-opacity:1;stroke:none;font-family:Sans"
     x="680.73285"
     y="178.1198"
     id="text3226-4"
     sodipodi:linespacing="125%"><tspan
       sodipodi:role="line"
       x="680.73285"
       y="178.1198"
       id="tspan3230-4">L5</tspan></text>
  <text
     xml:space="preserve"
     style="font-size:12.2484436px;font-style:normal;font-weight:normal;text-align:center;line-height:125%;letter-spacing:0px;word-spacing:0px;text-anchor:middle;fill:#000000;fill-opacity:1;stroke:none;font-family:Sans"
     x="680.73285"
     y="215.38704"
     id="text3226-15"
     sodipodi:linespacing="125%"><tspan
       sodipodi:role="line"
       x="680.73285"
       y="215.38704"
       id="tspan3230-5">L6</tspan></text>
  <g
     id="g6262"
     style="fill-rule:nonzero;stroke:#000000;stroke-opacity:1"
     transform="translate(-159.22954,-9.464706)">
    <path
       sodipodi:nodetypes="cc"
       transform="matrix(0.55674745,0,0,0.55674745,490.31584,31)"
       inkscape:connector-curvature="0"
       id="path5719"
       d="m 399.48749,146.47836 c -57.24363,14.20941 2.38665,60.22483 2.38665,60.22483"
       style="fill:none;stroke:#000000;stroke-width:1.5;stroke-linecap:butt;stroke-linejoin:miter;stroke-miterlimit:4;stroke-opacity:1;stroke-dasharray:none;marker-end:url(#Arrow2Mend)" />
    <path
       sodipodi:nodetypes="csc"
       inkscape:connector-curvature="0"
       id="path5719-3"
       d="m 724.61203,110.03146 c 27.46387,2.23543 43.6013,16.94934 47.91901,23.49338 2.2525,3.41397 2.76825,4.25182 2.76825,4.25182"
       style="fill:none;stroke:#000000;stroke-width:0.83512115;stroke-linecap:butt;stroke-linejoin:miter;stroke-miterlimit:4;stroke-opacity:1;stroke-dasharray:none;marker-end:url(#Arrow2Mend)" />
    <path
       sodipodi:nodetypes="cc"
       inkscape:connector-curvature="0"
       id="path5719-3-4"
       d="m 726.77866,191.75478 c 9.23125,32.3351 17.49396,14.54185 42.64545,27.87358"
       style="fill:none;stroke:#000000;stroke-width:0.8351211;stroke-linecap:butt;stroke-linejoin:miter;stroke-miterlimit:4;stroke-opacity:1;stroke-dasharray:none;marker-end:url(#Arrow2Mend)" />
    <path
       sodipodi:nodetypes="cc"
       inkscape:connector-curvature="0"
       id="path5719-3-5"
       d="m 722.18383,179.395 c 38.87718,3.16442 4.60168,-60.56002 4.60168,-60.56002"
       style="fill:none;stroke:#000000;stroke-width:0.8351211;stroke-linecap:butt;stroke-linejoin:miter;stroke-miterlimit:4;stroke-opacity:1;stroke-dasharray:none;marker-end:url(#Arrow2Mend)" />
    <path
       sodipodi:nodetypes="csc"
       inkscape:connector-curvature="0"
       id="path5719-3-9"
       d="m 720.37558,154.75771 c -21.93343,42.423 -33.20764,-15.18196 -15.09465,-6.50492 3.23357,1.54904 5.83877,3.05963 5.83877,3.05963"
       style="fill:none;stroke:#000000;stroke-width:0.8351211;stroke-linecap:butt;stroke-linejoin:miter;stroke-miterlimit:4;stroke-opacity:1;stroke-dasharray:none;marker-end:url(#Arrow2Mend)" />
    <path
       sodipodi:nodetypes="cc"
       inkscape:connector-curvature="0"
       id="path5719-3-49"
       d="m 714.38597,221.68877 c -27.08786,-21.87853 -17.2114,-38.18982 0.11038,-39.46175"
       style="fill:none;stroke:#000000;stroke-width:0.8351211;stroke-linecap:butt;stroke-linejoin:miter;stroke-miterlimit:4;stroke-opacity:1;stroke-dasharray:none;marker-end:url(#Arrow2Mend)" />
  </g>
  <g
     id="g7032"
     transform="translate(-159.22954,-9.464706)">
    <path
       sodipodi:nodetypes="cc"
       inkscape:connector-curvature="0"
       id="path5719-3-1"
       d="m 787.04125,110.44888 c 28.96788,4.12338 0.1286,29.36452 0.1286,29.36452"
       style="fill:none;stroke:#000000;stroke-width:0.8351211;stroke-linecap:butt;stroke-linejoin:miter;stroke-miterlimit:4;stroke-opacity:1;stroke-dasharray:none;marker-end:url(#DotM)" />
    <path
       sodipodi:nodetypes="cc"
       inkscape:connector-curvature="0"
       id="path5719-3-1-1"
       d="m 771.56469,142.46149 c -27.47254,-10.30109 -25.88272,21.75377 0.0591,34.77927"
       style="fill:none;stroke:#000000;stroke-width:0.8351211;stroke-linecap:butt;stroke-linejoin:miter;stroke-miterlimit:4;stroke-opacity:1;stroke-dasharray:none;marker-end:url(#DotM)" />
    <path
       sodipodi:nodetypes="cc"
       inkscape:connector-curvature="0"
       id="path5719-3-1-1-2"
       d="m 787.44545,182.78347 c 18.2381,-2.94903 16.72029,-34.78637 1.42658,-34.54706"
       style="fill:none;stroke:#000000;stroke-width:0.8351211;stroke-linecap:butt;stroke-linejoin:miter;stroke-miterlimit:4;stroke-opacity:1;stroke-dasharray:none;marker-end:url(#DotM)" />
    <path
       sodipodi:nodetypes="cc"
       inkscape:connector-curvature="0"
       id="path5719-3-1-1-6"
       d="m 772.74132,188.53725 c -9.25221,18.7875 -12.28603,17.31738 -45.64022,32.58046"
       style="fill:none;stroke:#000000;stroke-width:0.8351211;stroke-linecap:butt;stroke-linejoin:miter;stroke-miterlimit:4;stroke-opacity:1;stroke-dasharray:none;marker-end:url(#DotM)" />
    <path
       sodipodi:nodetypes="cc"
       inkscape:connector-curvature="0"
       id="path5719-3-1-1-6-0"
       d="m 770.69429,182.25438 c -16.60426,1.8458 -21.87566,-27.11465 -44.84107,-37.90344"
       style="fill:none;stroke:#000000;stroke-width:0.8351211;stroke-linecap:butt;stroke-linejoin:miter;stroke-miterlimit:4;stroke-opacity:1;stroke-dasharray:none;marker-end:url(#DotM)" />
    <path
       sodipodi:nodetypes="cc"
       inkscape:connector-curvature="0"
       id="path5719-3-1-1-6-09"
       d="m 772.93189,103.13979 c -19.16151,-4.866956 -19.15861,-7.455868 -49.31626,0.93463"
       style="fill:none;stroke:#000000;stroke-width:0.8351211;stroke-linecap:butt;stroke-linejoin:miter;stroke-miterlimit:4;stroke-opacity:1;stroke-dasharray:none;marker-end:url(#DotM)" />
    <path
       sodipodi:nodetypes="cc"
       inkscape:connector-curvature="0"
       id="path5719-3-1-1-6-09-7"
       d="m 772.37163,113.34201 c -13.38834,-1.60853 -19.11393,18.31767 -49.31625,26.66685"
       style="fill:none;stroke:#000000;stroke-width:0.8351211;stroke-linecap:butt;stroke-linejoin:miter;stroke-miterlimit:4;stroke-opacity:1;stroke-dasharray:none;marker-end:url(#DotM)" />
    <path
       sodipodi:nodetypes="cc"
       inkscape:connector-curvature="0"
       id="path5719-3-1-1-6-09-2"
       d="m 777.00664,190.85832 c -2.85912,15.11147 18.24101,16.67807 9.81989,-0.9833"
       style="fill:none;stroke:#000000;stroke-width:0.8351211;stroke-linecap:butt;stroke-linejoin:miter;stroke-miterlimit:4;stroke-opacity:1;stroke-dasharray:none;marker-end:url(#DotM)" />
    <path
       sodipodi:nodetypes="cc"
       inkscape:connector-curvature="0"
       id="path5719-3-1-1-6-09-1"
       d="m 778.44508,100.39599 c 1.77588,-8.702814 21.11791,-4.259319 7.90197,1.8936"
       style="fill:none;stroke:#000000;stroke-width:0.8351211;stroke-linecap:butt;stroke-linejoin:miter;stroke-miterlimit:4;stroke-opacity:1;stroke-dasharray:none;marker-end:url(#DotM)" />
    <path
       sodipodi:nodetypes="cc"
       inkscape:connector-curvature="0"
       id="path5719-3-1-1-6-09-76"
       d="m 787.3155,184.70496 c 8.64846,1.68598 15.60386,14.52041 -1.44794,28.50486"
       style="fill:none;stroke:#000000;stroke-width:0.8351211;stroke-linecap:butt;stroke-linejoin:miter;stroke-miterlimit:4;stroke-opacity:1;stroke-dasharray:none;marker-end:url(#DotM)" />
  </g>
  <rect
     style="fill:none;stroke:#000000;stroke-width:0.55674744;stroke-opacity:1"
     id="use5458"
     width="110.60059"
     height="32.604797"
     x="534.11926"
     y="83.499191"
     ry="3.4611826" />
  <rect
     style="fill:none;stroke:#000000;stroke-width:0.55674744;stroke-opacity:1"
     id="use5460"
     width="110.60059"
     height="32.604797"
     x="534.11926"
     y="120.68571"
     ry="3.4611826" />
  <rect
     style="fill:none;stroke:#000000;stroke-width:0.55674744;stroke-opacity:1"
     id="use5462"
     width="110.60059"
     height="32.604797"
     x="534.11926"
     y="157.87219"
     ry="3.4611826" />
  <rect
     style="fill:none;stroke:#000000;stroke-width:0.39891839;stroke-opacity:1"
     id="rect5383"
     width="129.29842"
     height="180.27901"
     x="524.77039"
     y="54.81115"
     ry="6.3713498" />
  <rect
     ry="3.4611826"
     y="195.0587"
     x="534.11926"
     height="32.604797"
     width="110.60059"
     id="use5464"
     style="fill:none;stroke:#000000;stroke-width:0.55674744;stroke-opacity:1" />
  <g
     id="g9090"
     transform="translate(-159.22954,-9.464706)">
    <path
       inkscape:transform-center-y="-5.1673224"
       transform="matrix(0.55674745,0,0,0.55674745,648.21894,-95.762529)"
       d="m 128.60892,352.75985 17.90013,31.00393 -35.80026,0 z"
       inkscape:randomized="0"
       inkscape:rounded="0"
       inkscape:flatsided="true"
       sodipodi:arg2="-0.52359878"
       sodipodi:arg1="-1.5707963"
       sodipodi:r2="10.334646"
       sodipodi:r1="20.669291"
       sodipodi:cy="373.42914"
       sodipodi:cx="128.60892"
       sodipodi:sides="3"
       id="path5604"
       style="fill:#dc3c28;fill-opacity:1;stroke:none"
       sodipodi:type="star" />
    <path
       inkscape:transform-center-y="-5.1673224"
       transform="matrix(0.55674745,0,0,0.55674745,648.21894,-58.576031)"
       d="m 128.60892,352.75985 17.90013,31.00393 -35.80026,0 z"
       inkscape:randomized="0"
       inkscape:rounded="0"
       inkscape:flatsided="true"
       sodipodi:arg2="-0.52359878"
       sodipodi:arg1="-1.5707963"
       sodipodi:r2="10.334646"
       sodipodi:r1="20.669291"
       sodipodi:cy="373.42914"
       sodipodi:cx="128.60892"
       sodipodi:sides="3"
       id="path5604-5"
       style="fill:#dc3c28;fill-opacity:1;stroke:none"
       sodipodi:type="star" />
    <path
       inkscape:transform-center-y="-5.1673224"
       transform="matrix(0.55674745,0,0,0.55674745,648.21894,-21.389522)"
       d="m 128.60892,352.75985 17.90013,31.00393 -35.80026,0 z"
       inkscape:randomized="0"
       inkscape:rounded="0"
       inkscape:flatsided="true"
       sodipodi:arg2="-0.52359878"
       sodipodi:arg1="-1.5707963"
       sodipodi:r2="10.334646"
       sodipodi:r1="20.669291"
       sodipodi:cy="373.42914"
       sodipodi:cx="128.60892"
       sodipodi:sides="3"
       id="path5604-1"
       style="fill:#dc3c28;fill-opacity:1;stroke:none"
       sodipodi:type="star" />
    <path
       inkscape:transform-center-y="-5.1673224"
       transform="matrix(0.55674745,0,0,0.55674745,648.21894,15.796982)"
       d="m 128.60892,352.75985 17.90013,31.00393 -35.80026,0 z"
       inkscape:randomized="0"
       inkscape:rounded="0"
       inkscape:flatsided="true"
       sodipodi:arg2="-0.52359878"
       sodipodi:arg1="-1.5707963"
       sodipodi:r2="10.334646"
       sodipodi:r1="20.669291"
       sodipodi:cy="373.42914"
       sodipodi:cx="128.60892"
       sodipodi:sides="3"
       id="path5604-2"
       style="fill:#dc3c28;fill-opacity:1;stroke:none"
       sodipodi:type="star" />
  </g>
  <g
     style="fill:#003dff;fill-opacity:1;stroke:none"
     id="g9028"
     transform="translate(-159.34256,-9.032037)">
    <path
       sodipodi:open="true"
       sodipodi:end="6.4927819"
       sodipodi:start="0.27231392"
       transform="matrix(0.44455316,0,0,0.44455316,573.16151,46.19626)"
       d="m 481.58529,145.99557 c -2.81442,10.07847 -13.26617,15.96714 -23.34464,13.15272 -10.07847,-2.81442 -15.96714,-13.26617 -13.15272,-23.34464 2.81442,-10.07847 13.26617,-15.96714 23.34464,-13.15272 9.63436,2.69041 15.5175,12.40683 13.43624,22.19087"
       sodipodi:ry="18.94685"
       sodipodi:rx="18.94685"
       sodipodi:cy="140.89961"
       sodipodi:cx="463.33661"
       id="path5622"
       style="fill:#003dff;fill-opacity:1;stroke:none"
       sodipodi:type="arc" />
    <path
       sodipodi:open="true"
       sodipodi:end="6.4927819"
       sodipodi:start="0.27231392"
       transform="matrix(0.44455316,0,0,0.44455316,573.16151,83.382758)"
       d="m 481.58529,145.99557 c -2.81442,10.07847 -13.26617,15.96714 -23.34464,13.15272 -10.07847,-2.81442 -15.96714,-13.26617 -13.15272,-23.34464 2.81442,-10.07847 13.26617,-15.96714 23.34464,-13.15272 9.63436,2.69041 15.5175,12.40683 13.43624,22.19087"
       sodipodi:ry="18.94685"
       sodipodi:rx="18.94685"
       sodipodi:cy="140.89961"
       sodipodi:cx="463.33661"
       id="path5622-0"
       style="fill:#003dff;fill-opacity:1;stroke:none"
       sodipodi:type="arc" />
    <path
       sodipodi:open="true"
       sodipodi:end="6.4927819"
       sodipodi:start="0.27231392"
       transform="matrix(0.44455316,0,0,0.44455316,573.16151,120.56927)"
       d="m 481.58529,145.99557 c -2.81442,10.07847 -13.26617,15.96714 -23.34464,13.15272 -10.07847,-2.81442 -15.96714,-13.26617 -13.15272,-23.34464 2.81442,-10.07847 13.26617,-15.96714 23.34464,-13.15272 9.63436,2.69041 15.5175,12.40683 13.43624,22.19087"
       sodipodi:ry="18.94685"
       sodipodi:rx="18.94685"
       sodipodi:cy="140.89961"
       sodipodi:cx="463.33661"
       id="path5622-5"
       style="fill:#003dff;fill-opacity:1;stroke:none"
       sodipodi:type="arc" />
    <path
       sodipodi:open="true"
       sodipodi:end="6.4927819"
       sodipodi:start="0.27231392"
       transform="matrix(0.44455316,0,0,0.44455316,573.16151,157.75577)"
       d="m 481.58529,145.99557 c -2.81442,10.07847 -13.26617,15.96714 -23.34464,13.15272 -10.07847,-2.81442 -15.96714,-13.26617 -13.15272,-23.34464 2.81442,-10.07847 13.26617,-15.96714 23.34464,-13.15272 9.63436,2.69041 15.5175,12.40683 13.43624,22.19087"
       sodipodi:ry="18.94685"
       sodipodi:rx="18.94685"
       sodipodi:cy="140.89961"
       sodipodi:cx="463.33661"
       id="path5622-9"
       style="fill:#003dff;fill-opacity:1;stroke:none"
       sodipodi:type="arc" />
  </g>
  <text
     xml:space="preserve"
     style="font-size:12.2484436px;font-style:normal;font-weight:normal;text-align:center;line-height:125%;letter-spacing:0px;word-spacing:0px;text-anchor:middle;fill:#dc3c28;fill-opacity:1;stroke:none;font-family:Sans"
     x="560.914"
     y="253.55165"
     id="text3226-3"
     sodipodi:linespacing="125%"><tspan
       sodipodi:role="line"
       x="560.914"
       y="253.55165"
       id="tspan3230-7">exc.</tspan></text>
  <text
     xml:space="preserve"
     style="font-size:12.2484436px;font-style:normal;font-weight:normal;text-align:center;line-height:125%;letter-spacing:0px;word-spacing:0px;text-anchor:middle;fill:#003dff;fill-opacity:1;stroke:none;font-family:Sans"
     x="619.87903"
     y="253.55165"
     id="text3226-3-4"
     sodipodi:linespacing="125%"><tspan
       sodipodi:role="line"
       x="619.87903"
       y="253.55165"
       id="tspan3230-7-6">inh.</tspan></text>
  <text
     xml:space="preserve"
     style="font-size:12.24844359999999988px;font-style:normal;font-weight:normal;text-align:center;line-height:125%;letter-spacing:0px;word-spacing:0px;text-anchor:middle;fill:#9a9a9a;fill-opacity:1;stroke:none;font-family:Sans"
     x="680.73285"
     y="73.734665"
     id="text3226-17"
     sodipodi:linespacing="125%"><tspan
       sodipodi:role="line"
       x="680.73285"
       y="73.734665"
       id="tspan3230-1">L1</tspan></text>
  <path
     style="fill:none;stroke:#000000;stroke-width:0.83512115;stroke-linecap:butt;stroke-linejoin:miter;stroke-miterlimit:4;stroke-opacity:1;stroke-dasharray:none;marker-end:url(#Arrow2Mend)"
     d="m 508.14439,70.069752 153.85039,0 0,104.710188 0,37.0272 -10.62341,0"
     id="path9135"
     inkscape:connector-curvature="0"
     sodipodi:nodetypes="ccccc" />
  <path
     style="fill:none;stroke:#000000;stroke-width:0.82902002;stroke-linecap:butt;stroke-linejoin:miter;stroke-miterlimit:4;stroke-opacity:1;stroke-dasharray:none;marker-end:url(#Arrow2Mend)"
     d="m 662.33747,174.16653 -10.91154,0"
     id="path10915"
     inkscape:connector-curvature="0"
     sodipodi:nodetypes="cc" />
  <path
     style="fill:none;stroke:#000000;stroke-width:0.82902002;stroke-linecap:butt;stroke-linejoin:miter;stroke-miterlimit:4;stroke-opacity:1;stroke-dasharray:none;marker-end:url(#Arrow2Mend)"
     d="m 661.69032,136.98002 -10.91154,0"
     id="path10915-3"
     inkscape:connector-curvature="0"
     sodipodi:nodetypes="cc" />
  <path
     style="fill:none;stroke:#000000;stroke-width:0.82902002;stroke-linecap:butt;stroke-linejoin:miter;stroke-miterlimit:4;stroke-opacity:1;stroke-dasharray:none;marker-end:url(#Arrow2Mend)"
     d="m 662.28221,99.793665 -10.91154,0"
     id="path10915-7"
     inkscape:connector-curvature="0"
     sodipodi:nodetypes="cc" />
  <text
     xml:space="preserve"
     style="font-size:12.2484436px;font-style:normal;font-weight:normal;text-align:center;line-height:125%;letter-spacing:0px;word-spacing:0px;text-anchor:middle;fill:#000000;fill-opacity:1;stroke:none;font-family:Sans"
     x="-85.735725"
     y="504.40921"
     id="text3226-17-5"
     sodipodi:linespacing="125%"
     transform="matrix(0,-1,1,0,0,0)"><tspan
       sodipodi:role="line"
       x="-85.735725"
       y="504.40921"
       id="tspan3230-1-3">ext. input</tspan></text>
  <rect
     style="fill:none;stroke:#000000;stroke-width:0.55674744;stroke-opacity:1"
     id="use5458-4"
     width="110.60059"
     height="18.605"
     x="534.11926"
     y="59.91304"
     ry="3.4611826" />
  <path
     style="fill:none;stroke:none"
     d="m 490.91506,43.637975 0.64013,0.880179"
     id="path3110"
     inkscape:connector-curvature="0" />
  <path
     style="fill:none;stroke:#000000;stroke-width:0.5567475px;stroke-linecap:butt;stroke-linejoin:miter;stroke-opacity:0.10945273"
     d="m 491.07509,43.637975 0.08,0.240049"
     id="path4040"
     inkscape:connector-curvature="0" />
  <path
     style="fill:#999999;stroke:#000000;stroke-width:0.5567475px;stroke-linecap:butt;stroke-linejoin:miter;stroke-opacity:0.07462685"
     d="m 491.07509,282.64645 0.24005,0.24005"
     id="path4044"
     inkscape:connector-curvature="0" />
  <path
     style="fill:none;stroke:#000000;stroke-width:0.5567475px;stroke-linecap:butt;stroke-linejoin:miter;stroke-opacity:0.08955222"
     d="m 702.058,282.8105 -0.16974,0.22632"
     id="path4048"
     inkscape:connector-curvature="0" />
  <path
     style="fill:none;stroke:#000000;stroke-width:0.5567475px;stroke-linecap:butt;stroke-linejoin:miter;stroke-opacity:0.06965176"
     d="m 700.88793,43.477028 -0.33948,0.39606"
     id="path4050"
     inkscape:connector-curvature="0" />
  <flowRoot
     xml:space="preserve"
     id="flowRoot3113"
     style="fill:black;stroke:none;stroke-opacity:1;stroke-width:1px;stroke-linejoin:miter;stroke-linecap:butt;fill-opacity:1;font-family:Sans;font-style:normal;font-weight:normal;font-size:40px;line-height:125%;letter-spacing:0px;word-spacing:0px"><flowRegion
       id="flowRegion3115"><rect
         id="rect3117"
         width="65.040649"
         height="368.29269"
         x="316.26016"
         y="33.439026" /></flowRegion><flowPara
       id="flowPara3119"></flowPara></flowRoot></svg>
