<?xml version="1.0" encoding="UTF-8" standalone="no"?>
<svg
   xmlns:dc="http://purl.org/dc/elements/1.1/"
   xmlns:cc="http://creativecommons.org/ns#"
   xmlns:rdf="http://www.w3.org/1999/02/22-rdf-syntax-ns#"
   xmlns:svg="http://www.w3.org/2000/svg"
   xmlns="http://www.w3.org/2000/svg"
   xmlns:sodipodi="http://sodipodi.sourceforge.net/DTD/sodipodi-0.dtd"
   xmlns:inkscape="http://www.inkscape.org/namespaces/inkscape"
   width="800"
   height="494"
   viewBox="491 31 444.02963 275.03324"
   id="svg2"
   version="1.1"
   inkscape:version="0.48.5 r10040"
   sodipodi:docname="setup_pres.svg">
  <metadata
     id="metadata428">
    <rdf:RDF>
      <cc:Work
         rdf:about="">
        <dc:format>image/svg+xml</dc:format>
        <dc:type
           rdf:resource="http://purl.org/dc/dcmitype/StillImage" />
        <dc:title></dc:title>
      </cc:Work>
    </rdf:RDF>
  </metadata>
  <defs
     id="defs426" />
  <sodipodi:namedview
     pagecolor="#ffffff"
     bordercolor="#666666"
     borderopacity="1"
     objecttolerance="10"
     gridtolerance="10"
     guidetolerance="10"
     inkscape:pageopacity="0"
     inkscape:pageshadow="2"
     inkscape:window-width="1280"
     inkscape:window-height="776"
     id="namedview424"
     showgrid="false"
     inkscape:zoom="0.61578899"
     inkscape:cx="444.46221"
     inkscape:cy="303.30742"
     inkscape:window-x="0"
     inkscape:window-y="1048"
     inkscape:window-maximized="1"
     inkscape:current-layer="svg2" />
  <text
     font-size="12.8"
     style="font-size:12.80000019px;font-style:normal;font-weight:normal;text-anchor:start;fill:#000000;font-family:sans-serif"
     x="584"
     y="232.03325"
     id="text4">
    <tspan
       x="584"
       y="232.03325"
       id="tspan6" />
  </text>
  <g
     id="g14"
     transform="matrix(0,1,-1,0,655.7733,-388.76341)">
    <g
       id="g16"
       transform="translate(-33.404849,0)">
      <rect
         style="fill:#ffffff"
         x="556"
         y="34.054798"
         width="28"
         height="20"
         id="rect18" />
      <rect
         style="fill:none;stroke:#000000;stroke-width:1"
         x="556"
         y="34.054798"
         width="28"
         height="20"
         id="rect20" />
    </g>
    <g
       id="g22"
       transform="translate(-33.404849,0)">
      <rect
         style="fill:#ffffff"
         x="556"
         y="54.054798"
         width="28"
         height="48"
         id="rect24" />
      <rect
         style="fill:none;stroke:#000000;stroke-width:1"
         x="556"
         y="54.054798"
         width="28"
         height="48"
         id="rect26" />
    </g>
    <g
       id="g28"
       transform="matrix(1,0,0,1.740602,-33.404849,-76.023896)">
      <rect
         style="fill:#ffffff"
         x="556"
         y="102.055"
         width="28"
         height="16"
         id="rect30" />
      <rect
         style="fill:none;stroke:#000000;stroke-width:1"
         x="556"
         y="102.055"
         width="28"
         height="16"
         id="rect32" />
    </g>
    <text
       font-size="12.8"
       style="font-size:12.80000019px;font-style:normal;font-weight:normal;text-anchor:middle;fill:#000000;font-family:sans-serif"
       x="-44.3923"
       y="541.83801"
       id="text34"
       transform="matrix(0,-1,1,0,0,0)">
      <tspan
         x="-44.3923"
         y="541.83801"
         id="tspan36">PA</tspan>
    </text>
    <text
       font-size="12.8"
       style="font-size:12.80000019px;font-style:normal;font-weight:normal;text-anchor:middle;fill:#000000;font-family:sans-serif"
       x="-77.814171"
       y="541.25989"
       id="text38"
       transform="matrix(0,-1,1,0,0,0)">
      <tspan
         x="-77.814171"
         y="541.25989"
         id="tspan40">PM</tspan>
    </text>
    <text
       font-size="12.8"
       style="font-size:12.80000019px;font-style:normal;font-weight:normal;text-anchor:middle;fill:#000000;font-family:sans-serif"
       x="-115.66311"
       y="541.52863"
       id="text42"
       transform="matrix(0,-1,1,0,0,0)">
      <tspan
         x="-115.66311"
         y="541.52863"
         id="tspan44">PVC</tspan>
    </text>
  </g>
  <g
     id="g46"
     transform="matrix(0.90340341,-0.42879165,0.42879165,0.90340341,-24.734284,294.33537)">
    <g
       id="g48">
      <rect
         style="fill:#ffffff"
         x="556"
         y="226.002"
         width="28"
         height="20"
         id="rect50" />
      <rect
         style="fill:none;stroke:#000000;stroke-width:1"
         x="556"
         y="226.002"
         width="28"
         height="20"
         id="rect52" />
    </g>
    <g
       id="g54">
      <rect
         style="fill:#ffffff"
         x="556"
         y="178.00301"
         width="28"
         height="48"
         id="rect56" />
      <rect
         style="fill:none;stroke:#000000;stroke-width:1"
         x="556"
         y="178.00301"
         width="28"
         height="48"
         id="rect58" />
    </g>
    <g
       id="g60">
      <rect
         style="fill:#ffffff"
         x="556"
         y="162.00301"
         width="28"
         height="16"
         id="rect62" />
      <rect
         style="fill:none;stroke:#000000;stroke-width:1"
         x="556"
         y="162.00301"
         width="28"
         height="16"
         id="rect64"
         ry="0" />
    </g>
    <text
       font-size="12.8"
       style="font-size:12.80000019px;font-style:normal;font-weight:normal;text-anchor:middle;fill:#000000;font-family:sans-serif"
       x="570"
       y="240.427"
       id="text66">
      <tspan
         x="570"
         y="240.427"
         id="tspan68">PA</tspan>
    </text>
    <text
       font-size="12.8"
       style="font-size:12.80000019px;font-style:normal;font-weight:normal;text-anchor:middle;fill:#000000;font-family:sans-serif"
       x="570"
       y="206.427"
       id="text70">
      <tspan
         x="570"
         y="206.427"
         id="tspan72">PM</tspan>
    </text>
    <text
       font-size="12.8"
       style="font-size:12.80000019px;font-style:normal;font-weight:normal;text-anchor:middle;fill:#000000;font-family:sans-serif"
       x="570"
       y="174.42799"
       id="text74">
      <tspan
         x="570"
         y="174.42799"
         id="tspan76">NaI</tspan>
    </text>
    <flowRoot
       xml:space="preserve"
       id="flowRoot5219"
       style="font-size:12px;font-style:normal;font-weight:normal;line-height:125%;letter-spacing:0px;word-spacing:0px;fill:#000000;fill-opacity:1;stroke:none;font-family:Sans"><flowRegion
         id="flowRegion5221"><rect
           id="rect5223"
           width="206.69292"
           height="32.152229"
           x="76.935699"
           y="469.88583" /></flowRegion><flowPara
         id="flowPara5225" /></flowRoot>  </g>
  <g
     id="g194"
     transform="translate(4.3970582,146.12669)">
    <g
       id="g196">
      <rect
         style="fill:#ffffff"
         x="492"
         y="128"
         width="24"
         height="24"
         id="rect198" />
      <rect
         style="fill:none;stroke:#000000;stroke-width:1"
         x="492"
         y="128"
         width="24"
         height="24"
         id="rect200" />
    </g>
    <text
       font-size="12.8"
       style="font-size:12.80000019px;font-style:normal;font-weight:normal;text-anchor:middle;fill:#000000;font-family:sans-serif"
       x="504"
       y="144.425"
       id="text202">
      <tspan
         x="504"
         y="144.425"
         id="tspan204">HV</tspan>
    </text>
  </g>
  <polyline
     style="fill:none;stroke:#000000;stroke-width:1.52686867;stroke-miterlimit:4;stroke-dasharray:none"
     points="504,152 504,236.002 556,236.002 "
     id="polyline224"
     transform="matrix(0,-0.79312668,0.54314471,0,438.1486,683.24081)" />
  <line
     style="fill:none;stroke:#000000;stroke-width:1.00214541;stroke-miterlimit:4;stroke-dasharray:none"
     x1="744.60498"
     y1="245.05408"
     x2="744.60498"
     y2="211.74615"
     id="line232" />
  <line
     style="fill:none;stroke:#000000;stroke-width:1.00214541;stroke-miterlimit:4;stroke-dasharray:none"
     x1="744.6615"
     y1="77.868423"
     x2="744.6615"
     y2="116.87553"
     id="line234" />
  <polyline
     style="fill:none;stroke:#000000;stroke-width:1"
     points="642,56.5061 642,57.0061 642,126.994 642,127.494 "
     id="polyline240"
     transform="matrix(1,0,0,0.41868252,20.661527,54.716406)" />
  <polyline
     style="fill:none;stroke:#000000;stroke-width:1"
     points="642,188 642,188.5 642,223.5 642,224 "
     id="polyline242"
     transform="translate(20.661527,21.868422)" />
  <polyline
     style="fill:none;stroke:#000000;stroke-width:1.00599873;stroke-miterlimit:4;stroke-dasharray:none"
     points="584,236.002 602,236.002 602,236 620,236 "
     id="polyline256"
     transform="matrix(0.99235399,0,0,1,25.402033,21.868422)" />
  <g
     id="g3602">
    <g
       transform="translate(20.661527,21.868422)"
       id="g78">
      <g
         id="g80">
        <rect
           id="rect82"
           height="24"
           width="44"
           y="32"
           x="620"
           style="fill:#ffffff" />
        <rect
           id="rect84"
           height="24"
           width="44"
           y="32"
           x="620"
           style="fill:none;stroke:#000000;stroke-width:1" />
      </g>
      <text
         id="text86"
         y="48.424999"
         x="642"
         style="font-size:12.80000019px;font-style:normal;font-weight:normal;text-anchor:middle;fill:#000000;font-family:sans-serif"
         font-size="12.8">
        <tspan
           id="tspan88"
           y="48.424999"
           x="642">MA</tspan>
      </text>
    </g>
    <g
       transform="translate(20.661527,21.868422)"
       id="g90">
      <rect
         id="rect92"
         height="24"
         width="48"
         y="32"
         x="700"
         style="fill:#ffffff" />
      <rect
         id="rect94"
         height="24"
         width="48"
         y="32"
         x="700"
         style="fill:none;stroke:#000000;stroke-width:1" />
    </g>
    <text
       id="text96"
       y="70.293419"
       x="744.6615"
       style="font-size:12.80000019px;font-style:normal;font-weight:normal;text-anchor:middle;fill:#000000;font-family:sans-serif"
       font-size="12.8">
      <tspan
         id="tspan98"
         y="70.293419"
         x="744.6615">TSCA</tspan>
    </text>
    <polyline
       transform="translate(20.661527,21.868422)"
       id="polyline230"
       points="664,44 664.5,44 699.5,44 700,44 "
       style="fill:none;stroke:#000000;stroke-width:0.99991842;stroke-miterlimit:4;stroke-dasharray:none" />
    <g
       transform="translate(22.888517,19.641432)"
       id="g270">
      <path
         inkscape:connector-curvature="0"
         id="path272"
         d="m 600,36 c 1.992,0 2.008,6 4,6"
         style="fill:none;stroke:#000000;stroke-width:0.40000001" />
      <path
         inkscape:connector-curvature="0"
         id="path274"
         d="m 600,36 c -1.328,0 -2.672,4 -4,4"
         style="fill:none;stroke:#000000;stroke-width:0.40000001" />
      <line
         id="line276"
         y2="40"
         x2="610"
         y1="40"
         x1="594"
         style="fill:none;stroke:#000000;stroke-width:0.40000001" />
      <path
         inkscape:connector-curvature="0"
         id="path278"
         d="m 604,42 c 1.328,0 2.672,-2 4,-2"
         style="fill:none;stroke:#000000;stroke-width:0.40000001" />
    </g>
    <g
       transform="translate(20.661527,21.868422)"
       id="g280">
      <path
         inkscape:connector-curvature="0"
         id="path282"
         d="m 680,36 c 1.992,0 2.008,6 4,6"
         style="fill:none;stroke:#000000;stroke-width:0.40000001" />
      <path
         inkscape:connector-curvature="0"
         id="path284"
         d="m 680,36 c -1.328,0 -2.672,4 -4,4"
         style="fill:none;stroke:#000000;stroke-width:0.40000001" />
      <line
         id="line286"
         y2="40"
         x2="690"
         y1="40"
         x1="674"
         style="fill:none;stroke:#000000;stroke-width:0.40000001" />
      <path
         inkscape:connector-curvature="0"
         id="path288"
         d="m 684,42 c 1.328,0 2.672,-2 4,-2"
         style="fill:none;stroke:#000000;stroke-width:0.40000001" />
    </g>
  </g>
  <g
     id="g3626">
    <g
       transform="translate(20.661527,21.868422)"
       id="g136">
      <g
         id="g138">
        <rect
           id="rect140"
           height="24"
           width="44"
           y="224"
           x="620"
           style="fill:#ffffff" />
        <rect
           id="rect142"
           height="24"
           width="44"
           y="224"
           x="620"
           style="fill:none;stroke:#000000;stroke-width:1" />
      </g>
      <text
         id="text144"
         y="240.425"
         x="642"
         style="font-size:12.80000019px;font-style:normal;font-weight:normal;text-anchor:middle;fill:#000000;font-family:sans-serif"
         font-size="12.8">
        <tspan
           id="tspan146"
           y="240.425"
           x="642">MA</tspan>
      </text>
    </g>
    <g
       transform="translate(20.661527,21.868422)"
       id="g148">
      <rect
         id="rect150"
         height="24"
         width="48"
         y="224"
         x="700"
         style="fill:#ffffff" />
      <rect
         id="rect152"
         height="24"
         width="48"
         y="224"
         x="700"
         style="fill:none;stroke:#000000;stroke-width:1" />
    </g>
    <text
       id="text154"
       y="262.29343"
       x="744.6615"
       style="font-size:12.80000019px;font-style:normal;font-weight:normal;text-anchor:middle;fill:#000000;font-family:sans-serif"
       font-size="12.8">
      <tspan
         id="tspan156"
         y="262.29343"
         x="744.6615">TSCA</tspan>
    </text>
    <polyline
       transform="translate(20.661527,21.868422)"
       id="polyline244"
       points="664,236 664.5,236 698.994,236 699.494,236 "
       style="fill:none;stroke:#000000;stroke-width:1" />
    <g
       transform="translate(20.661527,21.868422)"
       id="g320">
      <path
         inkscape:connector-curvature="0"
         id="path322"
         d="m 680,228 c 1.992,0 2.008,6 4,6"
         style="fill:none;stroke:#000000;stroke-width:0.40000001" />
      <path
         inkscape:connector-curvature="0"
         id="path324"
         d="m 680,228 c -1.328,0 -2.672,4 -4,4"
         style="fill:none;stroke:#000000;stroke-width:0.40000001" />
      <line
         id="line326"
         y2="232"
         x2="690"
         y1="232"
         x1="674"
         style="fill:none;stroke:#000000;stroke-width:0.40000001" />
      <path
         inkscape:connector-curvature="0"
         id="path328"
         d="m 684,234 c 1.328,0 2.672,-2 4,-2"
         style="fill:none;stroke:#000000;stroke-width:0.40000001" />
    </g>
  </g>
  <g
     id="g340"
     transform="translate(20.661527,21.868422)">
    <path
       style="fill:none;stroke:#000000;stroke-width:0.40000001"
       d="m 652,204 c 1.992,0 2.008,6 4,6"
       id="path342"
       inkscape:connector-curvature="0" />
    <path
       style="fill:none;stroke:#000000;stroke-width:0.40000001"
       d="m 652,204 c -1.328,0 -2.672,4 -4,4"
       id="path344"
       inkscape:connector-curvature="0" />
    <line
       style="fill:none;stroke:#000000;stroke-width:0.40000001"
       x1="646"
       y1="208"
       x2="662"
       y2="208"
       id="line346" />
    <path
       style="fill:none;stroke:#000000;stroke-width:0.40000001"
       d="m 656,210 c 1.328,0 2.672,-2 4,-2"
       id="path348"
       inkscape:connector-curvature="0" />
  </g>
  <g
     id="g364"
     transform="translate(19.548032,29.662887)">
    <line
       style="fill:none;stroke:#000000;stroke-width:0.40000001"
       x1="728"
       y1="200"
       x2="732"
       y2="200"
       id="line366" />
    <line
       style="fill:none;stroke:#000000;stroke-width:0.40000001"
       x1="732"
       y1="200"
       x2="732"
       y2="194"
       id="line368" />
    <line
       style="fill:none;stroke:#000000;stroke-width:0.40000001"
       x1="732"
       y1="194"
       x2="738"
       y2="194"
       id="line370" />
    <line
       style="fill:none;stroke:#000000;stroke-width:0.40000001"
       x1="738"
       y1="194"
       x2="738"
       y2="200"
       id="line372" />
    <line
       style="fill:none;stroke:#000000;stroke-width:0.40000001"
       x1="738"
       y1="200"
       x2="744"
       y2="200"
       id="line374" />
  </g>
  <g
     id="g100"
     transform="translate(20.661527,-18.071723)">
    <g
       id="g102">
      <rect
         style="fill:#ffffff"
         x="620"
         y="128"
         width="44"
         height="24"
         id="rect104" />
      <rect
         style="fill:none;stroke:#000000;stroke-width:1"
         x="620"
         y="128"
         width="44"
         height="24"
         id="rect106" />
    </g>
    <text
       font-size="12.8"
       style="font-size:12.80000019px;font-style:normal;font-weight:normal;text-anchor:middle;fill:#000000;font-family:sans-serif"
       x="642"
       y="144.425"
       id="text108">
      <tspan
         x="642"
         y="144.425"
         id="tspan110">Delay</tspan>
    </text>
  </g>
  <g
     id="g112"
     transform="translate(20.661527,29.808564)">
    <g
       id="g114">
      <rect
         style="fill:#ffffff"
         x="764"
         y="164"
         width="44"
         height="24"
         id="rect116" />
      <rect
         style="fill:none;stroke:#000000;stroke-width:1"
         x="764"
         y="164"
         width="44"
         height="24"
         id="rect118" />
    </g>
    <text
       font-size="12.8"
       style="font-size:12.80000019px;font-style:normal;font-weight:normal;text-anchor:middle;fill:#000000;font-family:sans-serif"
       x="786"
       y="180.425"
       id="text120">
      <tspan
         x="786"
         y="180.425"
         id="tspan122">Gate</tspan>
    </text>
  </g>
  <g
     id="g124"
     transform="translate(20.661527,-18.071723)">
    <g
       id="g126">
      <rect
         style="fill:#ffffff"
         x="860"
         y="128"
         width="44"
         height="24"
         id="rect128" />
      <rect
         style="fill:none;stroke:#000000;stroke-width:1"
         x="860"
         y="128"
         width="44"
         height="24"
         id="rect130" />
    </g>
    <text
       font-size="12.8"
       style="font-size:12.80000019px;font-style:normal;font-weight:normal;text-anchor:middle;fill:#000000;font-family:sans-serif"
       x="882"
       y="144.425"
       id="text132">
      <tspan
         x="882"
         y="144.425"
         id="tspan134">MCA</tspan>
    </text>
  </g>
  <g
     id="g158"
     transform="translate(20.661527,29.808564)">
    <g
       id="g160">
      <rect
         style="fill:#ffffff"
         x="620"
         y="164"
         width="44"
         height="24"
         id="rect162" />
      <rect
         style="fill:none;stroke:#000000;stroke-width:1"
         x="620"
         y="164"
         width="44"
         height="24"
         id="rect164" />
    </g>
    <text
       font-size="12.8"
       style="font-size:12.80000019px;font-style:normal;font-weight:normal;text-anchor:middle;fill:#000000;font-family:sans-serif"
       x="642"
       y="180.425"
       id="text166">
      <tspan
         x="642"
         y="180.425"
         id="tspan168">Delay</tspan>
    </text>
  </g>
  <g
     id="g170"
     transform="translate(20.661527,-18.071723)">
    <g
       id="g172">
      <rect
         style="fill:#ffffff"
         x="764"
         y="128"
         width="44"
         height="24"
         id="rect174" />
      <rect
         style="fill:none;stroke:#000000;stroke-width:1"
         x="764"
         y="128"
         width="44"
         height="24"
         id="rect176" />
    </g>
    <text
       font-size="12.8"
       style="font-size:12.80000019px;font-style:normal;font-weight:normal;text-anchor:middle;fill:#000000;font-family:sans-serif"
       x="786"
       y="144.425"
       id="text178">
      <tspan
         x="786"
         y="144.425"
         id="tspan180">Gate</tspan>
    </text>
  </g>
  <g
     id="g182"
     transform="translate(20.661527,29.808564)">
    <g
       id="g184">
      <rect
         style="fill:#ffffff"
         x="860"
         y="164"
         width="44"
         height="24"
         id="rect186" />
      <rect
         style="fill:none;stroke:#000000;stroke-width:1"
         x="860"
         y="164"
         width="44"
         height="24"
         id="rect188" />
    </g>
    <text
       font-size="12.8"
       style="font-size:12.80000019px;font-style:normal;font-weight:normal;text-anchor:middle;fill:#000000;font-family:sans-serif"
       x="882"
       y="180.425"
       id="text190">
      <tspan
         x="882"
         y="180.425"
         id="tspan192">MCA</tspan>
    </text>
  </g>
  <g
     id="g206"
     transform="translate(20.661527,55.418949)">
    <g
       id="g208">
      <rect
         style="fill:#ffffff"
         x="744"
         y="92"
         width="84"
         height="32"
         id="rect210" />
      <rect
         style="fill:none;stroke:#000000;stroke-width:1"
         x="744"
         y="92"
         width="84"
         height="32"
         id="rect212" />
    </g>
    <text
       font-size="12.8"
       style="font-size:12.80000019px;font-style:normal;font-weight:normal;text-anchor:middle;fill:#000000;font-family:sans-serif"
       x="786"
       y="112.425"
       id="text214">
      <tspan
         x="786"
         y="112.425"
         id="tspan216">Coincidence</tspan>
    </text>
    <text
       font-size="12.8"
       style="font-size:12.80000019px;font-style:normal;font-weight:normal;text-anchor:start;fill:#000000;font-family:sans-serif"
       x="772"
       y="104"
       id="text218">
      <tspan
         x="772"
         y="104"
         id="tspan220" />
    </text>
  </g>
  <line
     style="fill:none;stroke:#000000;stroke-width:1.00214541;stroke-miterlimit:4;stroke-dasharray:none"
     x1="806.43549"
     y1="133.61575"
     x2="806.43549"
     y2="147.78712"
     id="line226" />
  <line
     style="fill:none;stroke:#000000;stroke-width:1.00214541;stroke-miterlimit:4;stroke-dasharray:none"
     x1="806.43549"
     y1="179.41786"
     x2="806.43549"
     y2="193.71294"
     id="line228" />
  <line
     style="fill:none;stroke:#000000;stroke-width:1.00214541;stroke-miterlimit:4;stroke-dasharray:none"
     x1="744.87549"
     y1="171.41895"
     x2="764.87549"
     y2="171.41895"
     id="line236" />
  <line
     style="fill:none;stroke:#000000;stroke-width:1.00214541;stroke-miterlimit:4;stroke-dasharray:none"
     x1="744.55151"
     y1="155.41896"
     x2="764.55151"
     y2="155.41896"
     id="line238" />
  <polyline
     style="fill:none;stroke:#000000;stroke-width:1"
     points="664,140 664.5,140 762.995,140 763.495,140 "
     id="polyline246"
     transform="translate(20.661527,-18.071723)" />
  <polyline
     style="fill:none;stroke:#000000;stroke-width:1"
     points="664,176 664.5,176 762.995,176 763.495,176 "
     id="polyline248"
     transform="translate(20.661527,29.808564)" />
  <polyline
     style="fill:none;stroke:#000000;stroke-width:1"
     points="808,140 808.5,140 859.5,140 860,140 "
     id="polyline250"
     transform="translate(20.661527,-18.071723)" />
  <polyline
     style="fill:none;stroke:#000000;stroke-width:1"
     points="808,176 808.5,176 859.5,176 860,176 "
     id="polyline252"
     transform="translate(20.661527,29.808564)" />
  <g
     id="g290"
     transform="translate(20.661527,4.1981799)">
    <path
       style="fill:none;stroke:#000000;stroke-width:0.40000001"
       d="m 652,84 c 1.992,0 2.008,6 4,6"
       id="path292"
       inkscape:connector-curvature="0" />
    <path
       style="fill:none;stroke:#000000;stroke-width:0.40000001"
       d="m 652,84 c -1.328,0 -2.672,4 -4,4"
       id="path294"
       inkscape:connector-curvature="0" />
    <line
       style="fill:none;stroke:#000000;stroke-width:0.40000001"
       x1="646"
       y1="88"
       x2="662"
       y2="88"
       id="line296" />
    <path
       style="fill:none;stroke:#000000;stroke-width:0.40000001"
       d="m 656,90 c 1.328,0 2.672,-2 4,-2"
       id="path298"
       inkscape:connector-curvature="0" />
  </g>
  <g
     id="g300"
     transform="translate(20.661527,29.808564)">
    <path
       style="fill:none;stroke:#000000;stroke-width:0.40000001"
       d="m 692,168 c 1.992,0 2.008,6 4,6"
       id="path302"
       inkscape:connector-curvature="0" />
    <path
       style="fill:none;stroke:#000000;stroke-width:0.40000001"
       d="m 692,168 c -1.328,0 -2.672,4 -4,4"
       id="path304"
       inkscape:connector-curvature="0" />
    <line
       style="fill:none;stroke:#000000;stroke-width:0.40000001"
       x1="686"
       y1="172"
       x2="702"
       y2="172"
       id="line306" />
    <path
       style="fill:none;stroke:#000000;stroke-width:0.40000001"
       d="m 696,174 c 1.328,0 2.672,-2 4,-2"
       id="path308"
       inkscape:connector-curvature="0" />
  </g>
  <g
     id="g310"
     transform="translate(20.661527,-18.071723)">
    <path
       style="fill:none;stroke:#000000;stroke-width:0.40000001"
       d="m 692,132 c 1.992,0 2.008,6 4,6"
       id="path312"
       inkscape:connector-curvature="0" />
    <path
       style="fill:none;stroke:#000000;stroke-width:0.40000001"
       d="m 692,132 c -1.328,0 -2.672,4 -4,4"
       id="path314"
       inkscape:connector-curvature="0" />
    <line
       style="fill:none;stroke:#000000;stroke-width:0.40000001"
       x1="686"
       y1="136"
       x2="702"
       y2="136"
       id="line316" />
    <path
       style="fill:none;stroke:#000000;stroke-width:0.40000001"
       d="m 696,138 c 1.328,0 2.672,-2 4,-2"
       id="path318"
       inkscape:connector-curvature="0" />
  </g>
  <g
     id="g330"
     transform="translate(20.661527,-18.071723)">
    <path
       style="fill:none;stroke:#000000;stroke-width:0.40000001"
       d="m 836,132 c 1.992,0 2.008,6 4,6"
       id="path332"
       inkscape:connector-curvature="0" />
    <path
       style="fill:none;stroke:#000000;stroke-width:0.40000001"
       d="m 836,132 c -1.328,0 -2.672,4 -4,4"
       id="path334"
       inkscape:connector-curvature="0" />
    <line
       style="fill:none;stroke:#000000;stroke-width:0.40000001"
       x1="830"
       y1="136"
       x2="846"
       y2="136"
       id="line336" />
    <path
       style="fill:none;stroke:#000000;stroke-width:0.40000001"
       d="m 840,138 c 1.328,0 2.672,-2 4,-2"
       id="path338"
       inkscape:connector-curvature="0" />
  </g>
  <g
     id="g350"
     transform="translate(20.661527,29.808564)">
    <path
       style="fill:none;stroke:#000000;stroke-width:0.40000001"
       d="m 836,168 c 1.992,0 2.008,6 4,6"
       id="path352"
       inkscape:connector-curvature="0" />
    <path
       style="fill:none;stroke:#000000;stroke-width:0.40000001"
       d="m 836,168 c -1.328,0 -2.672,4 -4,4"
       id="path354"
       inkscape:connector-curvature="0" />
    <line
       style="fill:none;stroke:#000000;stroke-width:0.40000001"
       x1="830"
       y1="172"
       x2="846"
       y2="172"
       id="line356" />
    <path
       style="fill:none;stroke:#000000;stroke-width:0.40000001"
       d="m 840,174 c 1.328,0 2.672,-2 4,-2"
       id="path358"
       inkscape:connector-curvature="0" />
  </g>
  <line
     style="fill:none;stroke:#000000;stroke-width:1.00214541;stroke-miterlimit:4;stroke-dasharray:none"
     x1="744.6615"
     y1="155.92828"
     x2="744.6615"
     y2="126.82172"
     id="line360" />
  <line
     style="fill:none;stroke:#000000;stroke-width:1.00214541;stroke-miterlimit:4;stroke-dasharray:none"
     x1="744.6615"
     y1="200.61203"
     x2="744.6615"
     y2="171.41895"
     id="line362" />
  <g
     id="g388"
     transform="translate(20.661527,29.808564)">
    <line
       style="fill:none;stroke:#000000;stroke-width:0.40000001"
       x1="788"
       y1="160"
       x2="792"
       y2="160"
       id="line390" />
    <line
       style="fill:none;stroke:#000000;stroke-width:0.40000001"
       x1="792"
       y1="160"
       x2="792"
       y2="154"
       id="line392" />
    <line
       style="fill:none;stroke:#000000;stroke-width:0.40000001"
       x1="792"
       y1="154"
       x2="798"
       y2="154"
       id="line394" />
    <line
       style="fill:none;stroke:#000000;stroke-width:0.40000001"
       x1="798"
       y1="154"
       x2="798"
       y2="160"
       id="line396" />
    <line
       style="fill:none;stroke:#000000;stroke-width:0.40000001"
       x1="798"
       y1="160"
       x2="804"
       y2="160"
       id="line398" />
  </g>
  <g
     id="g400"
     transform="translate(20.661527,11.992644)">
    <line
       style="fill:none;stroke:#000000;stroke-width:0.40000001"
       x1="728"
       y1="80"
       x2="732"
       y2="80"
       id="line402" />
    <line
       style="fill:none;stroke:#000000;stroke-width:0.40000001"
       x1="732"
       y1="80"
       x2="732"
       y2="74"
       id="line404" />
    <line
       style="fill:none;stroke:#000000;stroke-width:0.40000001"
       x1="732"
       y1="74"
       x2="738"
       y2="74"
       id="line406" />
    <line
       style="fill:none;stroke:#000000;stroke-width:0.40000001"
       x1="738"
       y1="74"
       x2="738"
       y2="80"
       id="line408" />
    <line
       style="fill:none;stroke:#000000;stroke-width:0.40000001"
       x1="738"
       y1="80"
       x2="744"
       y2="80"
       id="line410" />
  </g>
  <text
     font-size="6.77333"
     style="font-size:6.77333021px;font-style:normal;font-weight:normal;text-anchor:end;fill:#000000;font-family:sans-serif"
     x="660.6615"
     y="233.86841"
     id="text412">
    <tspan
       x="660.6615"
       y="233.86841"
       id="tspan414">rear</tspan>
    <tspan
       x="660.6615"
       y="242.33542"
       id="tspan416">outout</tspan>
  </text>
  <text
     font-size="6.77333"
     style="font-size:6.77333021px;font-style:normal;font-weight:normal;text-anchor:end;fill:#000000;font-family:sans-serif"
     x="660.6615"
     y="85.868423"
     id="text418">
    <tspan
       x="660.6615"
       y="85.868423"
       id="tspan420">rear</tspan>
    <tspan
       x="660.6615"
       y="94.335121"
       id="tspan422">outout</tspan>
  </text>
  <flowRoot
     xml:space="preserve"
     id="flowRoot5201"
     style="fill:black;stroke:none;stroke-opacity:1;stroke-width:1px;stroke-linejoin:miter;stroke-linecap:butt;fill-opacity:1;font-family:Sans;font-style:normal;font-weight:normal;font-size:12px;line-height:125%;letter-spacing:0px;word-spacing:0px"><flowRegion
       id="flowRegion5203"><rect
         id="rect5205"
         width="130.72659"
         height="64.957314"
         x="625.21417"
         y="398.18796" /></flowRegion><flowPara
       id="flowPara5207" /></flowRoot>  <flowRoot
     xml:space="preserve"
     id="flowRoot5209"
     style="fill:black;stroke:none;stroke-opacity:1;stroke-width:1px;stroke-linejoin:miter;stroke-linecap:butt;fill-opacity:1;font-family:Sans;font-style:normal;font-weight:normal;font-size:12px;line-height:125%;letter-spacing:0px;word-spacing:0px"><flowRegion
       id="flowRegion5211"><rect
         id="rect5213"
         width="81.196648"
         height="34.914558"
         x="590.29962"
         y="443.65808" /></flowRegion><flowPara
       id="flowPara5215" /></flowRoot>  <path
     sodipodi:type="arc"
     style="fill:#003dff;fill-opacity:1;stroke:#003dff;stroke-width:0.71799999;stroke-miterlimit:4;stroke-opacity:1;stroke-dasharray:none;stroke-dashoffset:0"
     id="path5217"
     sodipodi:cx="344.27377"
     sodipodi:cy="395.75204"
     sodipodi:rx="123.4189"
     sodipodi:ry="69.017151"
     d="m 463.14482,414.31495 a 123.4189,69.017151 0 1 1 3.97789,-11.93766"
     transform="matrix(0,0.09289018,-0.17263422,0,609.75498,48.858235)"
     sodipodi:start="0.27231392"
     sodipodi:end="6.3793275"
     sodipodi:open="true" />
  <text
     xml:space="preserve"
     style="font-size:12.2484436px;font-style:normal;font-weight:normal;text-align:center;line-height:125%;letter-spacing:0px;word-spacing:0px;text-anchor:middle;fill:#003dff;fill-opacity:1;stroke:none;font-family:Sans"
     x="544.33527"
     y="46.805874"
     id="text3226"
     sodipodi:linespacing="125%"><tspan
       sodipodi:role="line"
       id="tspan3228"
       x="544.33527"
       y="46.805874">Radioactive</tspan><tspan
       sodipodi:role="line"
       x="544.33527"
       y="62.116428"
       id="tspan3230">Source</tspan></text>
  <flowRoot
     xml:space="preserve"
     id="flowRoot3232"
     style="fill:black;stroke:none;stroke-opacity:1;stroke-width:1px;stroke-linejoin:miter;stroke-linecap:butt;fill-opacity:1;font-family:Sans;font-style:normal;font-weight:normal;font-size:12px;line-height:125%;letter-spacing:0px;word-spacing:0px"><flowRegion
       id="flowRegion3234"><rect
         id="rect3236"
         width="116.92317"
         height="27.606859"
         x="612.22272"
         y="437.16235" /></flowRegion><flowPara
       id="flowPara3238" /></flowRoot>  <polyline
     style="fill:none;stroke:#000000;stroke-width:1.07717252;stroke-miterlimit:4;stroke-dasharray:none"
     points="504,128 504,44.0548 556,44.0548 "
     id="polyline222-0"
     transform="matrix(0.57362732,0,0,0.80903809,321.72523,29.940829)" />
  <path
     style="opacity:0.91769547;fill:none;stroke:#003dff;stroke-width:1.11349487;stroke-linecap:butt;stroke-linejoin:miter;stroke-miterlimit:4;stroke-opacity:1;stroke-dasharray:none"
     d="m 540.53237,92.181374 c 0,0 3.49643,1.330689 3.44299,3.334941 -0.0535,2.004247 -3.44299,2.542387 -3.44299,2.542387 0,0 -3.28667,1.04603 -3.28457,2.954288 0,1.90289 3.28457,2.92302 3.28457,2.92302 0,0 3.46908,1.12821 3.44299,3.13245 -0.0259,2.00427 -3.44299,2.74486 -3.44299,2.74486 0,0 -3.37102,0.95754 -3.3742,2.91477 -0.006,1.9652 3.3742,2.96256 3.3742,2.96256 0,0 3.31691,1.00369 3.31806,2.92997 0,1.92629 -3.31806,2.94736 -3.31806,2.94736 0,0 -3.40108,0.90236 -3.40956,2.8752 -0.008,1.99373 3.40956,3.00211 3.40956,3.00211 0,0 3.28998,0.80121 3.31806,2.72749 0.0283,1.92628 -3.31806,3.14984 -3.31806,3.14984 0,0 -3.39585,0.86933 -3.40956,2.83567 -0.0138,2.00023 3.40956,3.04164 3.40956,3.04164"
     id="path5253-3"
     inkscape:connector-curvature="0"
     sodipodi:nodetypes="czcsczcsczcsczcsc" />
  <path
     style="opacity:0.91769547;fill:none;stroke:#eb3d09;stroke-width:1.11349487;stroke-linecap:butt;stroke-linejoin:miter;stroke-miterlimit:4;stroke-opacity:1;stroke-dasharray:none"
     d="m 540.81091,153.68422 c 0,0 3.72927,-0.29709 4.5404,1.53647 0.81107,1.83359 -2.02025,3.77313 -2.02025,3.77313 0,0 -2.52066,2.35429 -1.70052,4.07731 0.81594,1.71908 4.22066,1.23227 4.22066,1.23227 0,0 3.61774,-0.46828 4.45357,1.35355 0.83602,1.82177 -1.93343,3.95604 -1.93343,3.95604 0,0 -2.63481,2.31051 -1.79844,4.08004 0.83724,1.77794 4.31859,1.22956 4.31859,1.22956 0,0 3.42688,-0.51553 4.25389,1.22418 0.82598,1.74022 -1.73374,4.08542 -1.73374,4.08542 0,0 -2.68562,2.27355 -1.84735,4.05945 0.84767,1.80458 4.36749,1.25013 4.36749,1.25013 0,0 3.31573,-0.6869 4.16707,1.04127 0.85154,1.72807 -1.64692,4.26833 -1.64692,4.26833 0,0 -2.69506,2.24147 -1.8643,4.02374 0.84522,1.81293 4.38444,1.28584 4.38444,1.28584"
     id="path5253-3-7"
     inkscape:connector-curvature="0"
     sodipodi:nodetypes="czcsczcsczcsczcsc" />
  <g
     style="stroke-width:1.00214541;stroke-miterlimit:4;stroke-dasharray:none"
     id="g4642"
     transform="matrix(1,0,0,1.0095956,0,-1.5529882)">
    <polyline
       transform="matrix(0,0.85975442,-1,0,640.76311,-340.25288)"
       id="polyline254"
       points="584,44.0548 602,44.0548 602,44 620,44 "
       style="fill:none;stroke:#000000;stroke-width:1.08079553;stroke-miterlimit:4;stroke-dasharray:none" />
    <polyline
       transform="matrix(-0.56133155,0,0,-0.74218197,908.33027,368.37931)"
       id="polyline224-3"
       points="504,152 504,236.002 556,236.002 "
       style="fill:none;stroke:#000000;stroke-width:1.55262232;stroke-miterlimit:4;stroke-dasharray:none" />
  </g>
  <polyline
     style="fill:none;stroke:#000000;stroke-width:1.09126484;stroke-miterlimit:4;stroke-dasharray:none"
     points="504,152 504,236.002 556,236.002 "
     id="polyline224-1"
     transform="matrix(0,-0.64789607,1.253551,0,329.56132,620.02397)" />
</svg>
